<?xml version="1.0" standalone="no"?>
<!DOCTYPE svg PUBLIC "-//W3C//DTD SVG 1.1//EN" "http://www.w3.org/Graphics/SVG/1.1/DTD/svg11.dtd" >
<svg>
<metadata>
Created by FontForge 20110222 at Sat May 31 05:42:28 2014
 By Orthosie Webhosting
Copyright (c) 2010 by Anatoletype + fRED. Published  by Anatoletype. All rights reserved.
</metadata>
<defs>
<font id="DejaWebRegular" horiz-adv-x="857" >
  <font-face 
    font-family="DejaWebRegular"
    font-weight="400"
    font-stretch="normal"
    units-per-em="2048"
    panose-1="2 11 5 3 3 3 4 2 2 4"
    ascent="1556"
    descent="-492"
    x-height="1120"
    cap-height="1493"
    bbox="-563 -549 2667 1960"
    underline-thickness="90"
    underline-position="-40"
    unicode-range="U+000A-FB05"
  />
<missing-glyph horiz-adv-x="1503" 
d="M983 61l-160 -116l-723 511v434l161 114l260 -180v362l160 117l165 -117v-362l117 81l138 -97l141 98l161 -115v-435l-161 -113l-141 100l-118 -84v-198zM145 890l116 -82l120 82l-120 84zM285 791l116 -83l120 83l-118 84zM422 693l119 -85l120 85l-120 82zM681 1270
l-118 -84l118 -83l120 83zM681 1071l-118 -83l118 -83l119 85zM681 875l-118 -84l118 -83l119 83zM563 593l118 -82l119 83l-119 82zM703 495l120 -84l115 84l-115 83zM963 875l-121 -84l119 -83l117 83zM1242 875l-117 -84l117 -83l118 83z" />
    <glyph glyph-name="fi" unicode="fi" horiz-adv-x="1216" 
d="M887 0v975h-483v-975h-166v975h-199v145h199v84q0 99 22 168.5t67 114t112.5 64.5t159.5 20q32 0 68 -6t72 -19l-26 -129q-15 3 -31 5t-33.5 3.5t-36 2.5t-38.5 1q-43 0 -75 -11t-53 -34t-31.5 -60.5t-10.5 -89.5v-114h648v-1120h-165zM874 1439q0 59 22.5 86.5
t71.5 27.5t72.5 -27t23.5 -87t-23.5 -86.5t-72.5 -26.5t-71.5 26.5t-22.5 86.5z" />
    <glyph glyph-name="fl" unicode="fl" horiz-adv-x="1217" 
d="M887 0v1377q-29 12 -63 21.5t-71.5 16t-77.5 10.5t-81 4q-50 0 -86 -11.5t-59 -35.5t-34 -61t-11 -87v-114h288v-145h-288v-975h-166v975h-199v145h199v84q0 95 24 164.5t71.5 114.5t119 66.5t166.5 21.5q45 0 100 -6.5t112.5 -19t114.5 -30t106 -38.5v-1477h-165z" />
    <glyph glyph-name="f_f_i" unicode="ffi" horiz-adv-x="1864" 
d="M1534 975h-482v-975h-165v975h-483v-975h-166v975h-199v145h199v84q0 99 22 168.5t67 114t112.5 64.5t159.5 20q32 0 68 -6t72 -19l-26 -129q-29 5 -63.5 8.5t-75.5 3.5q-43 0 -75 -11t-53 -34t-31.5 -60.5t-10.5 -89.5v-114h483v84q0 99 22 168.5t66.5 114t112.5 64.5
t160 20q32 0 68 -6t71 -19l-26 -129q-29 5 -63.5 8.5t-74.5 3.5q-43 0 -75 -11t-53.5 -34t-32 -60.5t-10.5 -89.5v-114h648v-1120h-166v975zM1521 1439q0 59 22.5 86.5t71.5 27.5q50 0 73.5 -27t23.5 -87t-24 -86.5t-73 -26.5t-71.5 26.5t-22.5 86.5z" />
    <glyph glyph-name="f_f_l" unicode="ffl" horiz-adv-x="1866" 
d="M599 1571q32 0 68 -6t72 -19l-26 -129q-29 5 -63.5 8.5t-75.5 3.5q-43 0 -75 -11t-53 -34t-31.5 -60.5t-10.5 -89.5v-114h483v84q0 95 24 164.5t71.5 114.5t119 66.5t166.5 21.5q45 0 100 -6.5t112.5 -19t114.5 -30t106 -38.5v-1477h-165v1377q-29 12 -63 21.5t-71.5 16
t-77.5 10.5t-81 4q-50 0 -86 -11.5t-59 -35.5t-34 -61t-11 -87v-114h288v-145h-288v-975h-166v975h-483v-975h-166v975h-199v145h199v84q0 99 22 168.5t67 114t112.5 64.5t159.5 20z" />
    <glyph glyph-name="f_f" unicode="ff" horiz-adv-x="1364" 
d="M599 1571q32 0 68 -6t72 -19l-26 -129q-29 5 -63.5 8.5t-75.5 3.5q-43 0 -75 -11t-53 -34t-31.5 -60.5t-10.5 -89.5v-114h483v84q0 99 22 168.5t66.5 114t112.5 64.5t160 20q32 0 68 -6t71 -19l-26 -129q-29 5 -63.5 8.5t-74.5 3.5q-43 0 -75 -11t-53.5 -34t-32 -60.5
t-10.5 -89.5v-114h288v-145h-288v-975h-165v975h-483v-975h-166v975h-199v145h199v84q0 99 22 168.5t67 114t112.5 64.5t159.5 20z" />
    <glyph glyph-name="f_t" unicode="ft" horiz-adv-x="1439" 
d="M1378 15q-14 -7 -35.5 -14.5t-46.5 -14t-51 -10.5t-49 -4q-81 0 -139 19.5t-96 61t-56 106t-18 155.5v661h-483v-975h-166v975h-199v145h199v84q0 88 17.5 156t56 115t100 71.5t149.5 24.5q22 0 46.5 -2t48 -6t45 -9.5t36.5 -12.5l-23 -130q-16 4 -33 7t-36 5.5t-38.5 4
t-39.5 1.5q-50 0 -82 -11.5t-50 -35.5t-24.5 -60.5t-6.5 -87.5v-114h483l20 318h145v-318h338v-145h-338v-622q0 -52 8.5 -94t28 -71t51 -45t77.5 -16q13 0 31 1.5t36.5 4.5t36.5 7t32 9z" />
    <glyph glyph-name=".notdef" horiz-adv-x="1503" 
d="M983 61l-160 -116l-723 511v434l161 114l260 -180v362l160 117l165 -117v-362l117 81l138 -97l141 98l161 -115v-435l-161 -113l-141 100l-118 -84v-198zM145 890l116 -82l120 82l-120 84zM285 791l116 -83l120 83l-118 84zM422 693l119 -85l120 85l-120 82zM681 1270
l-118 -84l118 -83l120 83zM681 1071l-118 -83l118 -83l119 85zM681 875l-118 -84l118 -83l119 83zM563 593l118 -82l119 83l-119 82zM703 495l120 -84l115 84l-115 83zM963 875l-121 -84l119 -83l117 83zM1242 875l-117 -84l117 -83l118 83z" />
    <glyph glyph-name=".null" horiz-adv-x="0" 
 />
    <glyph glyph-name=".null" horiz-adv-x="0" 
 />
    <glyph glyph-name="nonmarkingreturn" unicode="&#xd;" horiz-adv-x="480" 
 />
    <glyph glyph-name="LF" unicode="&#xa;" horiz-adv-x="480" 
 />
    <glyph glyph-name="space" unicode=" " horiz-adv-x="480" 
 />
    <glyph glyph-name="exclam" unicode="!" horiz-adv-x="674" 
d="M261 421q-2 36 -5 102.5t-6.5 144.5t-6 159.5t-2.5 149.5v516h175v-516q0 -68 -2.5 -149.5t-5.5 -159.5t-6.5 -144.5t-5.5 -102.5h-135zM217 99q0 67 26.5 98t82.5 31q58 0 86.5 -31t28.5 -98q0 -69 -28.5 -98t-86.5 -29q-57 0 -83 29t-26 98z" />
    <glyph glyph-name="quotedbl" unicode="&#x22;" horiz-adv-x="846" 
d="M332 1493l-18 -475h-138l-18 475h174zM688 1493l-18 -475h-136l-18 475h172z" />
    <glyph glyph-name="numbersign" unicode="#" horiz-adv-x="1605" 
d="M839 1470l-98 -412h275l99 412h152l-98 -412h295v-160h-331l-78 -328h301v-159h-338l-97 -411h-152l97 411h-277l-97 -411h-152l98 411h-298v159h333l80 328h-305v160h341l96 412h154zM980 898h-275l-79 -328h277z" />
    <glyph glyph-name="dollar" unicode="$" horiz-adv-x="1187" 
d="M715 1691v-208l34 -4q53 -8 104.5 -24.5t101.5 -41t99 -58.5l-105 -140q-67 49 -148 74q-40 12 -86 19v-492l1 -1q67 -36 130.5 -75.5t113 -88t80 -107.5t30.5 -134q0 -90 -40.5 -164.5t-110 -128t-162.5 -83.5q-40 -12 -82 -20v-263h-155v254q-50 3 -96 11
q-63 12 -118.5 33t-103.5 50.5t-87 65.5l109 136q33 -26 70.5 -48t81 -38.5t93.5 -26.5q24 -4 51 -7v545q-62 34 -121 70q-63 40 -112.5 87.5t-80 106t-30.5 133.5q0 84 38 151t102 114.5t148 72.5q47 14 96 21v209h155zM693 192q55 14 97 40t67 63.5t25 84.5
q0 60 -30.5 107.5t-80.5 87.5q-43 34 -96 66v-453zM514 1304q-47 -10 -81 -29.5t-52 -50t-18 -70.5q0 -58 30.5 -104.5t79.5 -86.5q39 -32 87 -61v409q-24 -3 -46 -7z" />
    <glyph glyph-name="percent" unicode="%" horiz-adv-x="1917" 
d="M615 1071q0 52 -6 107.5t-24.5 101.5t-52.5 75t-89 29q-47 0 -77.5 -24.5t-47.5 -65t-23.5 -91.5t-6.5 -103q0 -53 6 -108.5t24.5 -101.5t52 -75t89.5 -29q47 0 77 24.5t47.5 65t24 91.5t6.5 104zM791 1100q0 -93 -18 -174.5t-59 -142.5t-107.5 -96t-163.5 -35
q-89 0 -152 33.5t-103 91t-58 133.5t-18 161q0 93 18 174t59 142t107.5 96t163.5 35q89 0 152 -33.5t102.5 -90.5t58 -133t18.5 -161zM1424 1543l136 -82l-1089 -1534l-136 82zM1629 391q0 52 -6 107.5t-24.5 101.5t-52.5 75t-89 29q-47 0 -77.5 -24.5t-47.5 -65
t-23.5 -91.5t-6.5 -103q0 -53 6 -108.5t24.5 -101.5t52 -75t89.5 -29q47 0 77 24.5t47.5 65t24 91.5t6.5 104zM1805 420q0 -93 -18 -174.5t-59 -142.5t-107.5 -96t-163.5 -35q-89 0 -152 33.5t-103 91t-58 133.5t-18 161q0 93 18 174t59 142t107.5 96t163.5 35
q89 0 152 -33.5t102.5 -90.5t58 -133t18.5 -161z" />
    <glyph glyph-name="ampersand" unicode="&#x26;" horiz-adv-x="1588" 
d="M1496 14q-14 -7 -36.5 -14.5t-48 -13.5t-52.5 -10t-50 -4q-83 0 -144 19.5t-101 61t-59.5 106t-19.5 155.5v928q0 23 -18 41t-47.5 31.5t-66.5 23.5t-74.5 16t-72.5 8.5t-59 2.5q-61 0 -117.5 -13t-100 -40t-69.5 -68.5t-26 -97.5q0 -59 28 -109t79 -86t123 -56t160 -20
h37v-155h-58q-78 0 -151 -20t-130 -57t-91.5 -90t-34.5 -120q0 -74 27.5 -131t76.5 -96t116.5 -59.5t147.5 -20.5q56 0 99.5 5t90.5 16l31 -133q-44 -20 -100.5 -31.5t-140.5 -11.5q-115 0 -211.5 27t-166 81t-108.5 135t-39 189q0 67 23 130t64 116.5t99 93t128 60.5
q-63 17 -114 49t-87 74t-55 91t-19 99q0 99 40.5 174.5t110 126.5t162 77t196.5 26q46 0 99.5 -5.5t107.5 -17t104 -30.5t88.5 -45.5t61.5 -61t23 -78.5v-162h359v-145h-359v-622q0 -52 9.5 -94t30.5 -71t55 -45t83 -16q13 0 31.5 1.5t38 4.5t39 6.5t34.5 8.5z" />
    <glyph glyph-name="quotesingle" unicode="'" horiz-adv-x="490" 
d="M328 1493l-15 -445h-135l-15 445h165z" />
    <glyph glyph-name="parenleft" unicode="(" horiz-adv-x="726" 
d="M439 -273q-72 110 -125.5 221.5t-89.5 226.5t-53.5 235t-17.5 246t20.5 246t59 233t92.5 218t121 201l129 -67q-62 -99 -108 -198.5t-76.5 -200t-45.5 -203.5t-15 -209q0 -120 18 -235t50 -223.5t76.5 -211.5t98.5 -200z" />
    <glyph glyph-name="parenright" unicode=")" horiz-adv-x="682" 
d="M201.026 1553.98q71.9961 -109.993 125.493 -221.486q53.4961 -111.493 89.4941 -226.486t53.4971 -234.985q17.499 -119.993 17.499 -245.985t-20.499 -245.985q-20.499 -119.992 -58.9961 -232.985q-38.498 -112.993 -92.4951 -217.987
q-53.9961 -104.993 -120.992 -200.987l-128.992 66.9961q61.9961 98.9941 107.993 198.487q45.9971 99.4941 76.4951 199.988t45.498 203.487q14.999 102.994 14.999 208.987q0 119.993 -17.999 234.986q-17.999 114.992 -49.9971 223.486q-31.998 108.493 -76.4951 211.486
q-44.498 102.994 -98.4941 199.988z" />
    <glyph glyph-name="asterisk" unicode="*" horiz-adv-x="999" 
d="M924 1247l-341 -194l341 -195l-55 -98l-317 203v-377h-105v377l-318 -203l-54 98l340 195l-340 194l54 99l318 -203v377h105v-377l317 203z" />
    <glyph glyph-name="plus" unicode="+" horiz-adv-x="1570" 
d="M1305 719v-154h-443v-491h-155v491h-442v154h442v449h155v-449h443z" />
    <glyph glyph-name="comma" unicode="," horiz-adv-x="593" 
d="M296 240q22 0 43 -7.5t37.5 -24t26 -42.5t9.5 -62q0 -49 -12.5 -103.5t-32 -108.5t-44 -103.5t-48.5 -88.5l-100 46q9 17 21 47.5t23.5 63.5t19.5 64.5t8 50.5q0 10 -10.5 21.5t-23 28t-23 41.5t-10.5 62q0 30 9.5 52t25.5 36t37 20.5t44 6.5z" />
    <glyph glyph-name="hyphen" unicode="-" horiz-adv-x="843" 
d="M169 643h505v-145h-505v145z" />
    <glyph glyph-name="period" unicode="." horiz-adv-x="586" 
d="M181 111q0 67 26.5 98t82.5 31q58 0 86.5 -31t28.5 -98q0 -69 -28.5 -98t-86.5 -29q-57 0 -83 29t-26 98z" />
    <glyph glyph-name="slash" unicode="/" horiz-adv-x="710" 
d="M523 1493h155l-491 -1683h-155z" />
    <glyph glyph-name="zero" unicode="0" horiz-adv-x="1278" 
d="M974 692q0 70 -7 140t-23.5 134.5t-43 120t-64.5 96.5t-89 64.5t-117 23.5t-116 -23t-86.5 -63.5t-60 -94t-38 -114.5t-20 -126t-5.5 -127q0 -70 7.5 -140t24 -133.5t43 -119t65 -96t89.5 -63.5t117 -23q67 0 117 23t86 62.5t59.5 92.5t37 113.5t19 125t5.5 127.5z
M1161 723q0 -95 -12 -187.5t-38 -176t-67.5 -154.5t-100.5 -123t-136.5 -81t-176.5 -29q-97 0 -172.5 27.5t-132.5 77t-96.5 117t-64.5 147.5t-36 169t-11 182q0 95 12 188t38.5 177t68 155t101 123.5t137 82t176.5 29.5q97 0 172.5 -28t132 -77.5t96 -117.5t64 -148.5
t35.5 -170.5t11 -182z" />
    <glyph glyph-name="one" unicode="1" horiz-adv-x="1025" 
d="M183 152h292v1100l-296 -117l-39 157l333 126h177v-1266h267v-152h-734v152z" />
    <glyph glyph-name="two" unicode="2" horiz-adv-x="1127" 
d="M1009 152v-152h-859v152l327 359q73 80 130 149.5t97 132t61 119t21 111.5q0 62 -21.5 109t-59.5 79t-90.5 48t-114.5 16q-33 0 -72 -4.5t-81 -13t-85 -21.5t-85 -29l-37 148q52 22 102.5 39t98 29t92.5 18t87 6q101 0 184.5 -26t143 -76.5t92 -123.5t32.5 -167
q0 -78 -24 -152t-67.5 -148.5t-105.5 -151t-137 -159.5l-264 -291h635z" />
    <glyph glyph-name="three" unicode="3" horiz-adv-x="1100" 
d="M683 768q73 -17 128 -50t91 -77.5t54 -98t18 -110.5q0 -113 -42.5 -199t-113 -144t-161.5 -87.5t-188 -29.5q-45 0 -93.5 4.5t-97.5 13.5t-98 22.5t-96 31.5l54 172q91 -37 179.5 -54.5t171.5 -17.5q67 0 122 19t94 53t60.5 81.5t21.5 103.5q0 52 -23.5 99.5t-73.5 83.5
t-129 57t-190 21h-111v152h121q77 0 142.5 18t113.5 51.5t75 81.5t27 108q0 97 -69.5 150t-203.5 53q-75 0 -144 -15.5t-140 -42.5l-50 148q41 18 84.5 33t88.5 25.5t90.5 16.5t90.5 6q98 0 179 -21.5t139 -64.5t90 -107.5t32 -149.5q0 -66 -21 -121t-55 -97.5t-78 -72
t-89 -45.5z" />
    <glyph glyph-name="four" unicode="4" horiz-adv-x="1234" 
d="M747 1236l-504 -742h504v742zM679 1418h243v-924h221v-152h-221v-342h-175v342h-667v188z" />
    <glyph glyph-name="five" unicode="5" horiz-adv-x="1152" 
d="M199 1418h746v-152h-571v-387q16 4 39 7.5t48.5 6t52.5 4t52 1.5q103 0 190 -28t149 -82t97 -132.5t35 -179.5q0 -123 -37.5 -217.5t-104 -158t-158.5 -96.5t-200 -33q-48 0 -100 5.5t-104 16.5t-100 28t-88 40l60 165q42 -18 83.5 -33t85 -25t89 -15.5t94.5 -5.5
q67 0 121 18t92.5 54.5t59 92.5t20.5 133q0 64 -21 115.5t-60.5 87.5t-96 55t-126.5 19q-40 0 -86 -3t-92 -9t-90 -14t-79 -18v740z" />
    <glyph glyph-name="six" unicode="6" horiz-adv-x="1189" 
d="M595 748q-71 0 -124.5 -25.5t-89.5 -68t-54 -97.5t-18 -114q0 -71 23.5 -127t65.5 -95t100.5 -59.5t129.5 -20.5q63 0 115.5 20.5t90 58t58.5 90t21 117.5q0 80 -22.5 140t-64 100.5t-100.5 60.5t-131 20zM965 1220q-27 12 -55.5 22.5t-63 18.5t-76.5 12.5t-95 4.5
q-84 0 -144 -22.5t-101.5 -66.5t-66.5 -108t-37 -148q-8 -47 -19 -89t-23 -89l4 -2q9 17 18 29.5t19.5 23t23 20t28.5 20.5q18 13 43.5 26t56.5 23t67 16t76 6q103 0 189 -32.5t148 -92.5t96.5 -145t34.5 -190q0 -110 -36 -199.5t-100.5 -153t-154.5 -98t-198 -34.5
q-112 0 -201.5 37.5t-151.5 109t-95.5 175.5t-33.5 237t11.5 253t38 221.5t70 183.5t108 139t150.5 88t199 31q61 0 110 -5t89.5 -13.5t74.5 -21t66 -27.5z" />
    <glyph glyph-name="seven" unicode="7" horiz-adv-x="1063" 
d="M102 1418h851v-135q-40 -68 -87 -164t-95.5 -208t-95.5 -234t-85.5 -242t-65.5 -232t-37 -203h-175q9 107 37.5 227t68.5 242t87.5 241.5t95.5 224.5t92 190.5t77 140.5h-668v152z" />
    <glyph glyph-name="eight" unicode="8" horiz-adv-x="1204" 
d="M1032 1117q0 -81 -31 -143.5t-82 -112.5t-91.5 -75t-57.5 -35q33 -18 81.5 -46t100 -75.5t82.5 -107.5t31 -139q0 -93 -38 -169t-102.5 -130t-150 -83t-181.5 -29q-92 0 -174 26t-144.5 75t-99 119.5t-36.5 159.5q0 80 31 142.5t81.5 111.5t100 79.5t85.5 50.5
q-21 11 -64 35.5t-94.5 71t-82.5 105.5t-31 137q0 90 38 158t100.5 114t143 69t166.5 23q82 0 157.5 -22t133.5 -64.5t93 -104.5t35 -141zM594 657q-120 -61 -171 -97.5t-82 -79.5t-31 -97q0 -58 23 -104t63.5 -78t96.5 -49t121 -17q55 0 105.5 15t88.5 43t61 68.5t23 90.5
q0 64 -31 112t-82.5 87t-184.5 106zM338 1117q0 -60 31 -106.5t82.5 -85t165.5 -96.5q79 40 129.5 77t81.5 80t31 99q0 52 -22.5 90t-60 62.5t-85.5 36t-99 11.5t-97 -10.5t-81 -31.5t-55.5 -52.5t-20.5 -73.5z" />
    <glyph glyph-name="nine" unicode="9" horiz-adv-x="1189" 
d="M594.036 669.046q70.9961 0 124.492 25.498q53.4971 25.499 89.4951 67.9961t53.9961 97.4941q17.999 54.9961 17.999 113.993q0 70.9951 -23.498 126.992q-23.499 55.9961 -65.4961 94.9941q-41.9971 38.9971 -100.494 59.4961q-58.4961 20.499 -129.492 20.499
q-62.9961 0 -115.493 -20.499q-52.4961 -20.499 -89.9941 -57.9961q-37.498 -37.498 -58.4961 -89.9951q-20.999 -52.4961 -20.999 -117.492q0 -79.9951 22.499 -139.992q22.498 -59.9961 63.9961 -100.493q41.4971 -40.498 100.493 -60.4961
q58.9971 -19.999 130.992 -19.999zM224.059 197.074q26.999 -11.999 55.4971 -22.498q28.498 -10.5 62.9961 -18.499q34.498 -8 76.4951 -12.499q41.998 -4.5 94.9941 -4.5q83.9951 0 143.991 22.498q59.9961 22.499 101.494 66.4961q41.4971 43.998 66.4961 107.994
q24.998 63.9961 36.9971 147.99q8 46.9971 18.999 88.9951q10.999 41.9971 22.999 88.9941l-4 2q-8.99902 -16.999 -17.999 -29.498q-8.99902 -12.499 -19.499 -22.999q-10.499 -10.499 -22.998 -19.998q-12.499 -9.5 -28.498 -20.499q-17.999 -12.999 -43.498 -25.999
q-25.498 -12.999 -56.4961 -22.998t-66.9961 -15.999t-75.9951 -6q-102.994 0 -188.988 32.498q-85.9951 32.498 -147.991 92.4951q-61.9961 59.9961 -96.4941 144.99q-34.498 84.9951 -34.498 189.989q0 109.993 35.998 199.487t100.494 152.99
q64.4951 63.4961 154.49 97.9941q89.9941 34.498 197.987 34.498q111.993 0 201.488 -37.4971q89.4941 -37.498 151.49 -108.994q61.9971 -71.4951 95.4941 -175.489q33.498 -103.993 33.498 -236.985q0 -132.991 -11.499 -252.984t-37.998 -221.486
q-26.498 -101.494 -69.9951 -183.489q-43.4971 -81.9941 -107.993 -138.991t-150.491 -87.9951t-198.988 -30.998q-60.9961 0 -109.993 5t-89.4941 13.499q-40.498 8.5 -74.4961 20.999q-33.9971 12.499 -65.9951 27.498z" />
    <glyph glyph-name="colon" unicode=":" horiz-adv-x="586" 
d="M181 931q0 67 26.5 98t82.5 31q58 0 86.5 -31t28.5 -98q0 -69 -28.5 -98t-86.5 -29q-57 0 -83 29t-26 98zM181 111q0 67 26.5 98t82.5 31q58 0 86.5 -31t28.5 -98q0 -69 -28.5 -98t-86.5 -29q-57 0 -83 29t-26 98z" />
    <glyph glyph-name="semicolon" unicode=";" horiz-adv-x="593" 
d="M175 -254q9 17 21 47.5t23.5 63.5t19.5 64.5t8 50.5q0 10 -10.5 21.5t-23 28t-23 41.5t-10.5 62q0 30 9.5 52t25.5 36t37 20.5t44 6.5q22 0 43 -7.5t37.5 -24t26 -42.5t9.5 -62q0 -49 -12.5 -103.5t-32 -108.5t-44 -103.5t-48.5 -88.5zM182 931q0 67 27 98t83 31
q57 0 85.5 -31t28.5 -98q0 -69 -28.5 -98t-85.5 -29t-83.5 29t-26.5 98z" />
    <glyph glyph-name="less" unicode="&#x3c;" horiz-adv-x="1467" 
d="M1288 1008l-875 -367l875 -365l-77 -158l-1031 435l1 167l1032 438z" />
    <glyph glyph-name="equal" unicode="=" horiz-adv-x="1572" 
d="M1306 919v-154h-1040v154h1040zM1306 502v-154h-1040v154h1040z" />
    <glyph glyph-name="greater" unicode="&#x3e;" horiz-adv-x="1572" 
d="M179 268l874 367l-874 365l77 158l1031 -435l-1 -167l-1032 -438z" />
    <glyph glyph-name="question" unicode="?" horiz-adv-x="1011" 
d="M885 1187q0 -68 -25.5 -122t-63.5 -100.5t-83 -89t-83 -88t-63.5 -97.5t-25.5 -117v-172h-175v141q0 92 24.5 160.5t61.5 121t80.5 94t80.5 79t61.5 75.5t24.5 84q0 48 -16.5 84.5t-46.5 60.5t-72 36t-93 12q-31 0 -61 -3.5t-62.5 -10.5t-69 -19t-78.5 -28l-52 150
q42 20 85 35.5t86.5 26t86.5 15.5t85 5q90 0 162.5 -21.5t124 -64t79.5 -104.5t28 -143zM342 99q0 67 26.5 98t82.5 31q58 0 86.5 -31t28.5 -98q0 -69 -28.5 -98t-86.5 -29q-57 0 -83 29t-26 98z" />
    <glyph glyph-name="at" unicode="@" horiz-adv-x="2034" 
d="M1418 -271q-46 -27 -94.5 -46.5t-99.5 -32.5t-106 -19.5t-115 -6.5q-208 0 -373 66t-280 187t-176 291.5t-61 378.5q0 131 25.5 254.5t76.5 231.5t126.5 197.5t175.5 154t224.5 100t273.5 35.5q147 0 271.5 -30t225 -85.5t177 -135t128 -177.5t77.5 -213.5t26 -243.5
q0 -137 -26.5 -248.5t-76 -191t-120.5 -122.5t-160 -43q-98 0 -164 39t-96 121q-17 -33 -48.5 -63.5t-72 -53t-87.5 -36t-95 -13.5q-87 0 -159 34.5t-124.5 101.5t-81.5 164.5t-29 222.5q0 118 27.5 219.5t82.5 175.5t137.5 116.5t192.5 42.5q54 0 108.5 -9.5t105.5 -26
t97.5 -39t86.5 -49.5v-574q0 -65 10 -107t28 -66.5t43.5 -34.5t57.5 -10q43 0 78 28t59 82t37 132t13 178q0 177 -48 318t-142 239.5t-234 151t-324 52.5q-120 0 -219 -30.5t-177.5 -84.5t-136.5 -128.5t-96.5 -162t-57.5 -185t-19 -198.5q0 -176 49 -323t143 -253
t230.5 -165t310.5 -59q45 0 89.5 6t88 17t85 26.5t78.5 34.5zM1003 178q42 0 78.5 12.5t67.5 35t57 53t47 66.5v527q-48 35 -108.5 55.5t-142.5 20.5q-63 0 -109.5 -26t-77 -74t-46 -116.5t-15.5 -154.5q0 -101 18.5 -176t52 -124.5t79 -74t99.5 -24.5z" />
    <glyph glyph-name="A" unicode="A" horiz-adv-x="1349" 
d="M978 391h-617l-130 -391h-189l528 1493h209l526 -1493h-196zM416 543h505l-254 751z" />
    <glyph glyph-name="B" unicode="B" horiz-adv-x="1278" 
d="M615 152q79 0 145.5 13t115 44.5t76 83.5t27.5 131q0 75 -32 129.5t-85 89.5t-122.5 52t-144.5 17h-250v-560h270zM615 864q59 0 114 14.5t97.5 44t68 74t25.5 103.5q0 67 -25.5 113.5t-69.5 74.5t-103.5 40.5t-126.5 12.5h-250v-477h270zM893 810q54 -15 103.5 -45.5
t87 -75.5t60 -104t22.5 -131q0 -120 -44 -206t-121.5 -141t-181.5 -81t-224 -26h-425v1493h445q100 0 189.5 -19t157 -62t106.5 -112.5t39 -169.5q0 -60 -14.5 -111.5t-41.5 -92.5t-67 -70.5t-91 -45.5z" />
    <glyph glyph-name="C" unicode="C" horiz-adv-x="1350" 
d="M1270 197q-43 -45 -94.5 -85.5t-114.5 -71.5t-137.5 -49.5t-162.5 -18.5q-160 0 -280 58.5t-200 160.5t-120 240.5t-40 298.5q0 105 20 204.5t58 187t95 161t130 126t163 82t195 29.5q70 0 136.5 -14.5t127.5 -42t116.5 -67t104.5 -88.5l-104 -129q-48 43 -95.5 75
t-97 53.5t-101.5 32t-108 10.5q-74 0 -136.5 -23t-112.5 -64t-88.5 -96.5t-64 -121t-38.5 -138t-13 -146.5q0 -102 17.5 -188t49 -154.5t75 -120.5t96 -87t112.5 -52.5t124 -17.5q55 0 108 13t103.5 36.5t97 55.5t87.5 71z" />
    <glyph glyph-name="D" unicode="D" horiz-adv-x="1445" 
d="M345 1341v-1189h240q145 0 250 40t173 114.5t100.5 181.5t32.5 242q0 126 -28.5 237.5t-95 194.5t-177 131t-275.5 48h-220zM170 1493h415q204 0 345.5 -55t230 -153t128 -232t39.5 -293q0 -195 -54.5 -338t-154.5 -236.5t-241 -139.5t-313 -46h-395v1493z" />
    <glyph glyph-name="E" unicode="E" horiz-adv-x="1164" 
d="M170 1493h867v-152h-692v-498h664v-152h-664v-539h710v-152h-885v1493z" />
    <glyph glyph-name="F" unicode="F" horiz-adv-x="1061" 
d="M170 1493h826v-152h-651v-527h623v-152h-623v-662h-175v1493z" />
    <glyph glyph-name="G" unicode="G" horiz-adv-x="1485" 
d="M1346 194q-51 -56 -110.5 -97.5t-126 -69.5t-139 -42t-148.5 -14q-159 0 -289.5 53.5t-222.5 152t-142.5 239t-50.5 314.5q0 180 55.5 326t150.5 249t223 159t273 56q72 0 143 -13.5t138 -40.5t127.5 -68t113.5 -95l-98 -125q-49 48 -103.5 80.5t-111.5 53t-115 29.5
t-114 9q-125 0 -217.5 -49.5t-154.5 -131.5t-92.5 -188.5t-30.5 -219.5q0 -157 40.5 -273.5t112.5 -193.5t170.5 -115t214.5 -38q48 0 93.5 7.5t86.5 22.5t78.5 38t70.5 54v365h-318v152h493v-586z" />
    <glyph glyph-name="H" unicode="H" horiz-adv-x="1418" 
d="M170 1493h175v-657h728v657h175v-1493h-175v684h-728v-684h-175v1493z" />
    <glyph glyph-name="I" unicode="I" horiz-adv-x="515" 
d="M170 1493h175v-1493h-175v1493z" />
    <glyph glyph-name="J" unicode="J" horiz-adv-x="607" 
d="M-5 -240q66 3 115.5 19.5t83.5 47.5t51 76.5t17 106.5v1483h175v-1453q0 -227 -119.5 -338.5t-343.5 -111.5h-2v169z" />
    <glyph glyph-name="K" unicode="K" horiz-adv-x="1234" 
d="M170 1493h175v-638l608 638h216l-658 -689l718 -804h-230l-654 719v-719h-175v1493z" />
    <glyph glyph-name="L" unicode="L" horiz-adv-x="1076" 
d="M170 1493h175v-1341h677v-152h-852v1493z" />
    <glyph glyph-name="M" unicode="M" horiz-adv-x="1736" 
d="M155 0q0 18 1 60t2.5 101.5t4 134t5.5 157.5t6 171.5t6 177.5q11 312 25 691h236l278 -794q27 -76 50 -143t41.5 -126.5t33 -112t24.5 -99.5h12q12 57 28 117t35.5 121.5t41.5 124.5t45 126l279 786h222q14 -378 25 -690q3 -89 6 -177.5t6 -171.5t5 -157.5t4 -134
t3 -101.5t1 -61h-176q0 17 -1 65.5t-3.5 117.5t-5 154t-5.5 175.5t-6 182t-6 173.5q-2 69 -4 128t-4 103q-2 51 -3 93l-12 2l-107 -318l-294 -876h-180l-293 857l-114 335l-9 -1q-1 -49 -3 -108q-2 -51 -4 -118t-4 -145q-3 -81 -5.5 -168.5t-5 -173t-5 -165t-4 -143.5
t-2.5 -108.5t-1 -61.5h-169z" />
    <glyph glyph-name="N" unicode="N" horiz-adv-x="1424" 
d="M170 1493h192l525 -856q34 -56 64.5 -107t56 -96.5t46 -85t34.5 -72.5l6 2q-2 31 -3.5 72.5t-3 99.5t-2 135.5t-0.5 179.5v728h169v-1493h-193l-528 855q-34 55 -64.5 106t-56 97t-45.5 85.5t-34 72.5l-6 -2q2 -31 3.5 -71t3 -87t2 -101.5t0.5 -114.5v-840h-166v1493z
" />
    <glyph glyph-name="O" unicode="O" horiz-adv-x="1532" 
d="M757 1350q-92 0 -174 -40.5t-144 -116.5t-98.5 -185.5t-36.5 -246.5q0 -153 38 -269t103 -194t150.5 -117t181.5 -39q100 0 183 42t143 119t93 185.5t33 241.5q0 153 -38 269t-103 194t-150.5 117.5t-180.5 39.5zM777 1520q136 0 253 -51t202.5 -148t134 -238.5
t48.5 -322.5q0 -178 -48.5 -323.5t-135.5 -248.5t-208 -159.5t-266 -56.5q-137 0 -254 50.5t-203 147.5t-134.5 238t-48.5 322q0 178 50 324t138.5 249.5t209 160t262.5 56.5z" />
    <glyph glyph-name="P" unicode="P" horiz-adv-x="1171" 
d="M170 1493h400q147 0 247 -32t160.5 -89t87 -135t26.5 -169q0 -116 -41 -205.5t-114 -150.5t-172 -92t-216 -31h-203v-589h-175v1493zM345 1341v-600h223q79 0 141.5 19.5t106 57t66 92.5t22.5 126q0 68 -16.5 124.5t-57 96.5t-109 62t-171.5 22h-205z" />
    <glyph glyph-name="Q" unicode="Q" horiz-adv-x="1532" 
d="M846 -24l-20 -2q-10 -1 -20.5 -1.5t-22.5 -1t-27 -0.5q-136 0 -252.5 51t-202.5 148t-135 238t-49 322q0 190 50 337.5t138.5 248t209 152.5t262.5 52q137 0 253.5 -51t202 -148t134 -238.5t48.5 -322.5q0 -127 -22 -227t-56.5 -177.5t-77.5 -133.5t-85.5 -95t-80.5 -62
t-62 -35l249 -215l-149 -117zM756 1362q-92 0 -173 -42.5t-142 -121t-96.5 -189.5t-35.5 -248q0 -68 10.5 -141.5t33 -143.5t59 -133t88.5 -110.5t120.5 -75.5t156.5 -28q92 0 173.5 42.5t142 121t95.5 189.5t35 248q0 153 -37 271t-101 198.5t-148.5 121.5t-180.5 41z" />
    <glyph glyph-name="R" unicode="R" horiz-adv-x="1257" 
d="M564 790q75 0 135 20t101 56.5t63 87.5t22 113q0 63 -24 113.5t-68.5 86.5t-108 55t-142.5 19h-197v-551h219zM1012 0l-139 295q-33 69 -71.5 131t-87 109.5t-108.5 75t-135 27.5h-126v-638h-175v1493h393q129 0 225 -29.5t159 -82.5t94 -125.5t31 -158.5
q0 -74 -21.5 -139.5t-61.5 -118.5t-95.5 -91t-123.5 -56l-1 -5q49 -13 90 -47t75.5 -80.5t64 -102t54.5 -110.5l156 -347h-197z" />
    <glyph glyph-name="S" unicode="S" horiz-adv-x="1158" 
d="M924 1238q-32 21 -68 41t-76.5 36t-86.5 25.5t-97 9.5q-46 0 -89 -10.5t-76.5 -32t-53.5 -54.5t-20 -79q0 -62 29.5 -110.5t77.5 -89.5t109.5 -77.5t125.5 -74t125.5 -79t109.5 -92.5t77.5 -114.5t29.5 -145.5q0 -98 -41 -175.5t-110 -131.5t-159 -83t-187 -29
q-56 0 -115.5 11t-117.5 32t-111 52t-96 72l93 149q35 -31 77.5 -58t89.5 -46.5t98 -30.5t103 -11q54 0 106 14t92.5 41.5t65.5 68.5t25 95q0 62 -29.5 110.5t-77.5 89.5t-109.5 77.5t-125.5 74t-125.5 78.5t-109.5 92t-77.5 114.5t-29.5 145.5q0 90 36 160t97.5 118.5
t142.5 73.5t171 25q109 0 209 -33t182 -97z" />
    <glyph glyph-name="T" unicode="T" horiz-adv-x="1142" 
d="M30 1493h1082v-152h-454v-1341h-175v1341h-453v152z" />
    <glyph glyph-name="U" unicode="U" horiz-adv-x="1407" 
d="M166 1493h175v-862q0 -105 17.5 -194.5t61 -155t117 -102.5t185.5 -37q104 0 172 35t108 97t56 145.5t16 181.5v892h167v-862q0 -149 -26 -270.5t-88 -207.5t-165.5 -133.5t-259.5 -47.5q-152 0 -254.5 44t-165 126t-89.5 198.5t-27 260.5v892z" />
    <glyph glyph-name="V" unicode="V" horiz-adv-x="1340" 
d="M44 1493h191q123 -353 220 -629q41 -118 80.5 -230.5t70.5 -201t49 -142.5l19 -54h3l18 54q19 54 50 142.5t71 201t81 230.5q97 276 220 629h181l-528 -1493h-198z" />
    <glyph glyph-name="W" unicode="W" horiz-adv-x="1903" 
d="M88 1493h179l214 -922q10 -44 21.5 -99.5t22 -107.5t17.5 -93t9 -57h4q2 15 10.5 58.5t19 97.5t22 109t20.5 94l213 920h234l213 -919q6 -26 13.5 -60.5t15 -71t14.5 -73.5t13 -68t10 -54.5t6 -32.5h2q1 10 5.5 34.5t10.5 57.5t14 71.5t15.5 76t14.5 70.5l13 55l213 914
h168l-334 -1493h-252q-78 343 -139 613q-17 76 -34 151.5t-32.5 143.5t-28.5 126t-23 101t-15 67l-5 24h-2l-5 -24q-5 -24 -14.5 -67t-22.5 -101t-28.5 -126t-32.5 -143.5t-34 -151.5q-61 -270 -139 -613h-251z" />
    <glyph glyph-name="X" unicode="X" horiz-adv-x="1320" 
d="M765 787l505 -787h-205l-413 634l-410 -634h-192l508 795l-447 698h204l356 -546l354 546h192z" />
    <glyph glyph-name="Y" unicode="Y" horiz-adv-x="1270" 
d="M544 0v641l-500 852h207l396 -684l384 684h197l-501 -852v-641h-183z" />
    <glyph glyph-name="Z" unicode="Z" horiz-adv-x="1142" 
d="M126 1493h889v-152l-714 -1189h736v-152h-932v152l712 1189h-691v152z" />
    <glyph glyph-name="bracketleft" unicode="[" horiz-adv-x="715" 
d="M153 1556h392v-143h-225v-1540h225v-143h-392v1826z" />
    <glyph glyph-name="backslash" unicode="\" horiz-adv-x="715" 
d="M524 -190l-491 1683h158l491 -1683h-158z" />
    <glyph glyph-name="bracketright" unicode="]" horiz-adv-x="715" 
d="M563 -270h-392v143h224v1540h-224v143h392v-1826z" />
    <glyph glyph-name="asciicircum" unicode="^" horiz-adv-x="1572" 
d="M878 1493l514 -557h-188l-418 395l-417 -395h-188l514 557h183z" />
    <glyph glyph-name="underscore" unicode="_" horiz-adv-x="1136" 
d="M1072 -28v-143h-1008v143h1008z" />
    <glyph glyph-name="grave" unicode="`" horiz-adv-x="856" 
d="M512 1288l-294 317l147 93l257 -340z" />
    <glyph glyph-name="a" unicode="a" horiz-adv-x="1109" 
d="M679 550q-95 0 -169.5 -12t-126 -39.5t-79 -71.5t-27.5 -108q0 -45 14 -80.5t38.5 -60.5t59 -38t75.5 -13q54 0 111.5 25t104 67t76.5 96t30 112v123h-107zM952 0h-153l-13 142l-3 1q-27 -37 -65.5 -68t-84 -54t-95.5 -36t-100 -13q-74 0 -136 23t-106.5 65t-69.5 100
t-25 129q0 115 45 192.5t124.5 125t188.5 68t236 20.5h91q0 73 -16.5 128.5t-51.5 93t-89.5 57t-129.5 19.5q-30 0 -67.5 -4.5t-78.5 -13.5t-83 -22t-79 -29l-32 139q98 44 188.5 64.5t171.5 20.5q94 0 173.5 -23t137.5 -78.5t90 -148t32 -231.5v-667z" />
    <glyph glyph-name="b" unicode="b" horiz-adv-x="1177" 
d="M582 127q79 0 137 32.5t96 89t57 133.5t19 166q0 116 -20 200t-56.5 138.5t-89.5 80.5t-119 26q-48 0 -92 -20t-80 -52.5t-63 -73t-41 -80.5v-555q24 -20 54 -35.5t63.5 -26.5t68 -17t66.5 -6zM330 1000q22 34 57 61t76.5 46.5t85.5 30t83 10.5q112 0 194 -39t135 -112.5
t79 -179.5t26 -239q0 -130 -31.5 -241t-94.5 -192t-158 -127t-223 -46q-49 0 -101 8.5t-103 26t-99.5 43.5t-90.5 61v1445h165v-556z" />
    <glyph glyph-name="c" unicode="c" horiz-adv-x="1015" 
d="M890 928q-56 30 -129.5 47.5t-145.5 17.5q-63 0 -121.5 -24.5t-104 -76t-73 -130.5t-27.5 -187q0 -98 22.5 -180.5t66 -142t108 -92.5t149.5 -33q33 0 69 5t72 14t69.5 21.5t60.5 27.5l51 -131q-31 -20 -71.5 -37t-86 -29t-93 -19t-91.5 -7q-89 0 -161.5 21.5t-128 60.5
t-96 92t-66.5 117t-38.5 135.5t-12.5 146.5q0 150 40 262.5t110.5 188.5t166 114t206.5 38q41 0 82 -5.5t80 -16t75 -26.5t68 -37z" />
    <glyph glyph-name="d" unicode="d" horiz-adv-x="1177" 
d="M846 1556h166v-1556h-153l-7 121l-2 1q-24 -33 -56 -61t-70 -47.5t-81 -30.5t-88 -11q-113 0 -196.5 43t-138.5 119.5t-82 181.5t-27 229q0 125 29.5 235t87.5 191.5t145 129t202 47.5q86 0 158 -27t113 -74v509zM576 127q45 0 84 14t72.5 39t62 58t51.5 71v537
q-46 67 -122.5 107t-169.5 40q-69 0 -119 -35t-82.5 -93.5t-48.5 -134t-16 -155.5q0 -89 15 -170t49.5 -142.5t89 -98.5t134.5 -37z" />
    <glyph glyph-name="e" unicode="e" horiz-adv-x="1121" 
d="M993 68q-84 -47 -193.5 -71.5t-233.5 -24.5q-105 0 -189.5 41.5t-143.5 116.5t-90.5 180.5t-31.5 234.5q0 145 36 257t99.5 189t151 117t189.5 40q115 0 196.5 -42.5t134 -117t77 -176t24.5 -219.5v-77h-731q5 -90 24.5 -162.5t55.5 -123t90.5 -77.5t128.5 -27
q45 0 92.5 4.5t94.5 14.5t92 24t85 34zM844 660q-6 81 -23 143t-49.5 104t-82.5 63.5t-122 21.5q-63 0 -111 -24t-81.5 -67.5t-54 -105t-28.5 -135.5h552z" />
    <glyph glyph-name="f" unicode="f" horiz-adv-x="716" 
d="M599 1571q32 0 68 -6t72 -19l-26 -129q-29 5 -63.5 8.5t-75.5 3.5q-43 0 -75 -11t-53 -34t-31.5 -60.5t-10.5 -89.5v-114h288v-145h-288v-975h-166v975h-199v145h199v84q0 99 22 168.5t67 114t112.5 64.5t159.5 20z" />
    <glyph glyph-name="g" unicode="g" horiz-adv-x="1176" 
d="M845 110q-27 -32 -62.5 -57.5t-76 -43.5t-84.5 -27.5t-90 -9.5q-115 0 -195 45t-130.5 124t-73 186.5t-22.5 231.5q0 120 27 227t83 187.5t140.5 127.5t200.5 47q42 0 84 -7t81.5 -22.5t74.5 -40t62 -58.5l16 100h131v-1047q0 -134 -35 -233.5t-98.5 -164.5t-153.5 -97
t-199 -32q-35 0 -76 5t-83 15.5t-82.5 26.5t-74.5 37l53 143q28 -14 64.5 -27t74.5 -23t75.5 -16t67.5 -6q68 0 123.5 21t95 64t61 107t21.5 150v67zM845 834q-25 40 -59 70t-73.5 50t-83.5 29.5t-90 9.5q-68 0 -115.5 -35t-77.5 -92t-44 -129.5t-14 -147.5q0 -84 12.5 -167
t43 -148.5t81 -106t126.5 -40.5q46 0 89.5 13.5t81.5 37t69 55.5t54 69v532z" />
    <glyph glyph-name="h" unicode="h" horiz-adv-x="1183" 
d="M1026 0h-165v664q0 67 -10.5 127t-37 105t-72.5 71t-116 26q-51 0 -98.5 -20t-86.5 -52.5t-67.5 -73t-42.5 -80.5v-767h-165v1556h165v-566q37 42 73 71.5t74 49t79.5 28.5t89.5 9q103 0 175.5 -33t118 -92t66 -141t20.5 -181v-701z" />
    <glyph glyph-name="i" unicode="i" horiz-adv-x="496" 
d="M165 1120h166v-1120h-166v1120zM152 1439q0 59 22.5 86.5t71.5 27.5q50 0 73.5 -27t23.5 -87t-24 -86.5t-73 -26.5t-71.5 26.5t-22.5 86.5z" />
    <glyph glyph-name="j" unicode="j" horiz-adv-x="494" 
d="M-56 -283q50 2 90.5 16.5t69.5 43.5t45 73t16 105v1165h165v-1141q0 -93 -23.5 -168t-70 -127.5t-115.5 -81t-159 -28.5zM152 1439q0 59 22.5 86.5t72.5 27.5q49 0 72.5 -27t23.5 -87t-23.5 -86.5t-72.5 -26.5q-50 0 -72.5 26.5t-22.5 86.5z" />
    <glyph glyph-name="k" unicode="k" horiz-adv-x="1044" 
d="M165 1556h165v-919l451 483h215l-489 -524l535 -596h-219l-493 547v-547h-165v1556z" />
    <glyph glyph-name="l" unicode="l" horiz-adv-x="495" 
d="M165 1556h165v-1556h-165v1556z" />
    <glyph glyph-name="m" unicode="m" horiz-adv-x="1795" 
d="M935 963q31 45 66.5 79.5t77.5 58t91.5 35.5t109.5 12q92 0 159.5 -28.5t111.5 -82t65.5 -131t21.5 -175.5v-731h-165v701q0 42 -4 79.5t-13.5 70t-25 59t-39 45t-56 28.5t-74.5 10q-50 0 -93.5 -20t-79.5 -52.5t-62.5 -72.5t-41.5 -80v-768h-165v701q0 40 -4 77.5
t-14 70t-26 59t-39.5 45.5t-55.5 29.5t-74 10.5q-45 0 -88.5 -20t-80.5 -52.5t-65 -73t-42 -80.5v-767h-165v1120h130l23 -136q54 78 134 121t174 43q59 0 107.5 -13t87 -37t67 -58t47.5 -77z" />
    <glyph glyph-name="n" unicode="n" horiz-adv-x="1198" 
d="M875 0v664q0 67 -10.5 127t-38 104.5t-74 70.5t-118.5 26q-54 0 -102 -18.5t-87.5 -49t-69 -71.5t-45.5 -86v-767h-165v1120h132l23 -136q22 33 55.5 62.5t76 52t93.5 36t109 13.5q105 0 179 -33t120 -93t67 -143.5t21 -184.5v-694h-166z" />
    <glyph glyph-name="o" unicode="o" horiz-adv-x="1185" 
d="M583 993q-64 0 -118 -24.5t-93.5 -76t-61.5 -130.5t-22 -187q0 -120 21.5 -205t62.5 -139t99 -79t132 -25q64 0 118 24.5t93 76t61 130.5t22 187q0 120 -21.5 205t-62 139t-99 79t-131.5 25zM603 1148q100 0 186.5 -36t149.5 -108t99 -179.5t36 -249.5q0 -150 -35 -262.5
t-99.5 -188.5t-155 -114t-201.5 -38q-101 0 -187.5 36t-149.5 108t-99 179t-36 250q0 150 35 262.5t99.5 188.5t155.5 114t202 38z" />
    <glyph glyph-name="p" unicode="p" horiz-adv-x="1177" 
d="M165 -426v1546h132l24 -136q21 38 57.5 68.5t80 51.5t89 32.5t84.5 11.5q112 0 194 -39t135 -112.5t79 -179.5t26 -239q0 -130 -31.5 -241t-94.5 -192t-158 -127t-223 -46q-56 0 -114 10t-115 30v-438h-165zM330 191q60 -33 123.5 -48.5t128.5 -15.5q79 0 137 32.5t96 89
t57 133.5t19 166q0 116 -20 200t-56.5 138.5t-89.5 80.5t-119 26q-48 0 -92 -20t-80 -52.5t-63 -73t-41 -80.5v-576z" />
    <glyph glyph-name="q" unicode="q" horiz-adv-x="1175" 
d="M845 110q-27 -32 -62.5 -57.5t-76 -43.5t-84.5 -27.5t-90 -9.5q-115 0 -195 45t-130.5 124t-73 186.5t-22.5 231.5q0 120 27 227t83 187.5t140.5 127.5t200.5 47q42 0 84 -7t81.5 -22.5t74.5 -40t62 -58.5l16 100h131v-1546h-166v536zM845 834q-25 40 -59 70t-73.5 50
t-83.5 29.5t-90 9.5q-68 0 -115.5 -35t-77.5 -92t-44 -129.5t-14 -147.5q0 -84 13 -167t43.5 -148.5t81 -106t125.5 -40.5q46 0 89.5 13.5t81.5 37t69 55.5t54 69v532z" />
    <glyph glyph-name="r" unicode="r" horiz-adv-x="741" 
d="M702 944q-14 5 -30.5 7t-30.5 2q-54 0 -100 -9t-84.5 -29t-70 -52.5t-56.5 -79.5v-783h-165v1120h131l26 -148q29 43 68.5 76t83.5 55.5t90 33.5t90 11q6 0 15.5 -0.5t19.5 -1.5t19.5 -2t14.5 -2z" />
    <glyph glyph-name="s" unicode="s" horiz-adv-x="942" 
d="M766 912q-32 17 -65 32t-68 26t-72 17t-77 6q-36 0 -68 -7.5t-57 -23t-39.5 -39.5t-14.5 -58q0 -39 23 -70.5t60 -59.5t85 -54t97.5 -53t97.5 -57t85 -67t60 -81.5t23 -101.5q0 -83 -31.5 -147.5t-86 -109.5t-129 -68.5t-159.5 -23.5q-47 0 -94.5 7.5t-93 22t-86 35
t-72.5 47.5l65 141q33 -23 70.5 -41.5t77 -31t79 -19t75.5 -6.5q44 0 82 10t65.5 30.5t43.5 51.5t16 72q0 39 -23 70.5t-60 59.5t-85 54t-97.5 53t-97.5 57t-85 67t-60 81.5t-23 101.5q0 66 26 123t74.5 99t119 66.5t159.5 24.5q42 0 85.5 -6.5t85 -19t80 -30t70.5 -38.5z
" />
    <glyph glyph-name="t" unicode="t" horiz-adv-x="788" 
d="M727 15q-14 -7 -35.5 -14.5t-46.5 -14t-51 -10.5t-49 -4q-81 0 -139 19.5t-96 61t-56 106t-18 155.5v661h-187v112l187 33l20 318h145v-318h338v-145h-338v-622q0 -52 8.5 -94t28 -71t51 -45t77.5 -16q13 0 31 1.5t36.5 4.5t36.5 7t32 9z" />
    <glyph glyph-name="u" unicode="u" horiz-adv-x="1200" 
d="M882 0l-7 120q-19 -31 -53 -58t-77.5 -47t-94 -31.5t-102.5 -11.5q-96 0 -169 24t-122.5 75t-74.5 130.5t-25 189.5v729h163v-699q0 -72 14.5 -127t44 -92t76 -56t111.5 -19q49 0 94.5 13.5t85 37t71 55.5t52.5 69v818h166v-1120h-153z" />
    <glyph glyph-name="v" unicode="v" horiz-adv-x="1100" 
d="M72 1120h180l218 -651q15 -43 28 -82.5t24.5 -75.5t20 -68t14.5 -61h5q5 28 13 57.5t18 62.5t22.5 70t27.5 80l224 668h166l-378 -1120h-205z" />
    <glyph glyph-name="w" unicode="w" horiz-adv-x="1574" 
d="M76 1120h171l137 -557q10 -39 22.5 -94.5t23.5 -111t18.5 -103t7.5 -68.5h6q0 14 3.5 40t9.5 59t14 69l16 73q8 37 16 70.5t15 58.5l142 564h237l137 -557q6 -26 13.5 -60t15.5 -71t15.5 -75t13 -71t9 -59.5t3.5 -40.5h6q0 14 4 40.5t10 59t14.5 70t16.5 74t16 69
t14 57.5l138 564h162l-277 -1120h-209l-167 667q-5 18 -13.5 56t-17.5 81.5t-17 85t-10 68.5h-6q-2 -28 -10.5 -69.5t-18 -83.5t-19 -78.5t-13.5 -53.5l-169 -673h-205z" />
    <glyph glyph-name="x" unicode="x" horiz-adv-x="1121" 
d="M453 578l-374 542h208l276 -399l276 399h198l-369 -537l398 -583h-207l-304 440l-304 -440h-196z" />
    <glyph glyph-name="y" unicode="y" horiz-adv-x="1100" 
d="M148 -284q19 -7 43 -11.5t41 -4.5q43 0 86.5 41t86.5 113q30 50 60 111l-393 1155h180l224 -673q9 -29 19 -59t18.5 -59t16 -56t13.5 -50t9 -41q1 -8 2 -14q12 30 23 61q42 111 81.5 230t76.5 236t70 226t62 199h166q-36 -118 -75.5 -248t-82 -262.5t-89.5 -263
t-97.5 -249t-105 -219.5t-113 -175t-121.5 -116t-131 -42q-15 0 -30.5 2t-30.5 6t-29 9.5t-27 12.5z" />
    <glyph glyph-name="z" unicode="z" horiz-adv-x="961" 
d="M118 1120h744v-145l-567 -830h582v-145h-783v145l566 830h-542v145z" />
    <glyph glyph-name="braceleft" unicode="{" horiz-adv-x="1155" 
d="M479 612q64 -16 103 -52t60 -84t28 -104.5t7 -114.5q0 -59 -3.5 -114.5t-3.5 -103.5q0 -65 6.5 -109t28.5 -70.5t64.5 -38t114.5 -11.5h64v-144h-57q-26 0 -49.5 0.5t-44.5 2.5q-86 6 -143 26.5t-91 62.5t-48 109.5t-14 167.5q0 54 4 111t4 114q-1 56 -10 107t-35.5 89.5
t-74 61.5t-124.5 23h-58v143h58q78 0 125.5 22.5t74 60.5t36 88.5t9.5 106.5q0 57 -4.5 114.5t-4.5 111.5q0 99 14 166.5t48.5 109.5t91 62.5t142.5 26.5q21 2 44.5 2.5t49.5 0.5h57v-143h-64q-72 0 -115 -11.5t-65 -38t-28.5 -70.5t-6.5 -109q0 -48 4 -103.5t4 -114.5
t-7 -115.5t-28 -104.5t-60 -83.5t-103 -50.5z" />
    <glyph glyph-name="bar" unicode="|" horiz-adv-x="578" 
d="M368 1565v-2048h-158v2048h158z" />
    <glyph glyph-name="braceright" unicode="}" horiz-adv-x="1155" 
d="M207 -190h66q72 0 114.5 11.5t64.5 38t28 70.5t6 109q0 48 -3.5 103.5t-3.5 114.5q0 58 7 115t28 105t59.5 83.5t102.5 51.5q-53 12 -88.5 39t-58 63.5t-33.5 81t-15 92.5q-3 38 -3 77.5t2 77.5t4 73.5t2 67.5q0 65 -6.5 109t-28.5 70.5t-64 38t-114 11.5h-66v143h58
q50 0 94 -3q85 -6 142 -26.5t91 -62.5t48 -109.5t14 -166.5q0 -54 -4.5 -111t-4.5 -114q0 -56 9 -106.5t35.5 -89t74 -61t125.5 -22.5h59v-143h-59q-78 0 -125.5 -23t-73.5 -61.5t-35 -89.5t-9 -107q0 -57 4 -114t4 -111q0 -87 -10 -149.5t-34.5 -104.5t-64.5 -66.5
t-100 -36.5q-37 -7 -81.5 -9.5t-98.5 -2.5h-58v144z" />
    <glyph glyph-name="asciitilde" unicode="~" horiz-adv-x="1573" 
d="M1414 657q-38 -35 -82.5 -65.5t-93.5 -52.5t-101 -34.5t-104 -12.5q-47 0 -90.5 10t-85.5 25t-83 32.5t-82.5 32.5t-84 25t-87.5 10q-50 0 -91 -9.5t-77 -27t-69 -42.5t-68 -56l-55 137q38 34 82.5 63.5t93 52t100.5 35.5t105 13q46 0 89.5 -10t86 -25t84 -33t83.5 -33
t84.5 -25t86.5 -10q49 0 89.5 11t75.5 28.5t65.5 39t60.5 42.5z" />
    <glyph glyph-name="uni00A0" unicode="&#xa0;" horiz-adv-x="480" 
 />
    <glyph glyph-name="exclamdown" unicode="&#xa1;" horiz-adv-x="674" 
d="M397.016 1072.03q2 -35.998 5 -102.493q3 -66.4961 6.5 -144.491q3.49902 -77.9951 5.99902 -159.49t2.5 -149.491v-515.969h-174.989v515.969q0 67.9961 2.5 149.491t5.5 159.49q2.99902 77.9951 6.49902 144.491q3.5 66.4951 5.5 102.493h134.991zM441.014 1394.01
q0 -66.9961 -26.499 -97.9941q-26.498 -30.998 -82.4951 -30.998q-57.9961 0 -86.4941 30.998t-28.498 97.9941q0 68.9961 28.498 97.9941t86.4941 28.998q56.9971 0 82.9951 -28.998q25.999 -28.998 25.999 -97.9941z" />
    <glyph glyph-name="cent" unicode="&#xa2;" horiz-adv-x="1046" 
d="M945 928q-62 30 -144 47q-51 11 -102 15v-862q18 1 38 4q41 5 81 14t77 21.5t68 27.5l51 -131q-34 -20 -78.5 -37t-94 -29t-101.5 -19q-21 -3 -41 -4v-223h-163v227q-84 11 -150 40q-104 48 -170 127t-96.5 182.5t-30.5 216.5q0 150 44.5 262.5t121.5 188.5t180 114
q49 18 101 27v223h163v-213q25 -2 50 -5q46 -5 88.5 -15.5t82.5 -26.5t75 -37zM503 968q-66 -24 -118.5 -75.5t-84.5 -130.5t-32 -187q0 -98 25.5 -180.5t75 -142t122.5 -92.5q21 -10 45 -17v836q-17 -5 -33 -11z" />
    <glyph glyph-name="sterling" unicode="&#xa3;" horiz-adv-x="1247" 
d="M1018 1283q-53 29 -118 48t-155 19q-56 0 -95.5 -19.5t-64 -59.5t-35.5 -101.5t-11 -146.5v-180h444v-152h-444q0 -125 -8 -214.5t-23 -153t-36 -104.5t-48 -67h666v-152h-947v152q56 4 94 27t62.5 60.5t37.5 87.5t19 108.5t7 123.5t1 132h-231v152h231v150
q0 120 21.5 217.5t69.5 166t124.5 106t187.5 37.5q45 0 90.5 -6.5t88 -18.5t80.5 -28.5t69 -35.5z" />
    <glyph glyph-name="currency" unicode="&#xa4;" horiz-adv-x="1247" 
d="M203 82l-104 115l195 206q-31 55 -51 115t-20 123t19 122.5t54 113.5l-196 206l107 115l196 -207q48 36 104.5 56t118.5 20q63 0 119.5 -20.5t106.5 -53.5l195 209l107 -115l-196 -206q34 -55 52 -115.5t18 -124.5q0 -63 -19 -122t-55 -113l197 -207l-106 -113l-195 207
q-50 -35 -105.5 -56.5t-118.5 -21.5q-61 0 -118.5 21t-107.5 53zM626 373q57 0 104.5 23t81.5 61t52.5 86.5t18.5 99.5t-18.5 99t-52.5 85t-81.5 59.5t-104.5 22.5t-104 -22.5t-81 -59.5t-53 -85t-19 -99q0 -52 18.5 -100.5t52 -86t81 -60.5t105.5 -23z" />
    <glyph glyph-name="yen" unicode="&#xa5;" horiz-adv-x="1245" 
d="M1103 455h-387v-455h-182v455h-391v123h391v51l-82 155h-309v123h247l-298 586h170l362 -700l360 700h171l-299 -586h247v-123h-308l-81 -155v-51h389v-123z" />
    <glyph glyph-name="brokenbar" unicode="&#xa6;" horiz-adv-x="578" 
d="M368 408v-758h-158v758h158zM368 1432v-758h-158v758h158z" />
    <glyph glyph-name="section" unicode="&#xa7;" horiz-adv-x="981" 
d="M789 1298q-30 15 -62 29t-65.5 25t-68 17.5t-69.5 6.5q-39 0 -74.5 -8.5t-62.5 -27t-43 -47t-16 -68.5q0 -38 24 -71t63 -63t88.5 -59.5t102 -60.5t102 -66.5t88.5 -77t63 -92t24 -112.5q0 -94 -46.5 -164t-126.5 -119q51 -46 81.5 -101t30.5 -124q0 -76 -27 -134
t-74.5 -97t-112 -59t-140.5 -20t-149.5 16t-144.5 42v164q31 -15 64 -29t67.5 -25t70 -17.5t71.5 -6.5q42 0 79.5 9t66 28t45 49.5t16.5 73.5q0 42 -24 77t-63 66t-88.5 60.5t-102 61t-102 66t-88.5 76.5t-63 93t-24 114q0 92 45 164t126 119q-54 44 -82 100.5t-28 124.5
q0 71 28 125t75 90.5t109.5 55t131.5 18.5q74 0 145.5 -15.5t139.5 -42.5v-164zM364 936q-22 -17 -43 -37t-37.5 -42.5t-26.5 -48.5t-10 -54q0 -39 19 -75t50 -68.5t71 -61.5t81 -54t80.5 -46.5t69.5 -38.5q22 16 43 36t37.5 43t26.5 48.5t10 54.5q0 38 -19.5 73.5t-51 68
t-71.5 62t-81 55t-80 47t-68 38.5z" />
    <glyph glyph-name="dieresis" unicode="&#xa8;" horiz-adv-x="856" 
d="M133 1489q0 58 22.5 85t71.5 27q48 0 71.5 -27t23.5 -85q0 -59 -23.5 -85t-71.5 -26q-49 0 -71.5 26t-22.5 85zM535 1489q0 58 22.5 85t71.5 27q48 0 71 -27t23 -85q0 -59 -23 -85t-71 -26q-49 0 -71.5 26t-22.5 85z" />
    <glyph glyph-name="copyright" unicode="&#xa9;" horiz-adv-x="1852" 
d="M1172 1014q-48 24 -110 37.5t-125 13.5q-55 0 -104 -20.5t-86 -59.5t-59 -96t-22 -130q0 -87 21.5 -150t60 -104t92 -60.5t117.5 -19.5q24 0 53.5 3.5t60 10.5t60.5 17t56 22l49 -122q-27 -16 -63 -29.5t-75.5 -23.5t-81 -15.5t-80.5 -5.5q-92 0 -172.5 29.5t-140.5 87
t-94.5 141t-34.5 191.5q0 116 35 205.5t96.5 150t146 91.5t184.5 31q28 0 62.5 -4.5t69.5 -13.5t70 -21.5t65 -28.5zM921 1382q-151 0 -264 -52.5t-188.5 -141t-113 -204.5t-37.5 -243q0 -144 46.5 -261.5t128 -201.5t192.5 -130t240 -46q134 0 245.5 46t192 129.5
t125 200.5t44.5 258q0 95 -20 179.5t-58 156.5t-92 129.5t-122 97.5t-148.5 61.5t-170.5 21.5zM925 1510q108 0 204.5 -25.5t178.5 -73.5t148 -116.5t112 -154t70.5 -186t24.5 -213.5q0 -103 -23.5 -200t-68 -182t-109 -155.5t-147 -121.5t-182 -79t-212.5 -28
q-165 0 -300 57.5t-231.5 159t-149 241t-52.5 303.5q0 105 23 203t67 184t107.5 157.5t145.5 122.5t181 79t213 28z" />
    <glyph glyph-name="ordfeminine" unicode="&#xaa;" horiz-adv-x="901" 
d="M767 717h-159v97q-20 -29 -49 -50.5t-62.5 -36.5t-70 -22.5t-70.5 -7.5q-58 0 -105.5 16.5t-81.5 46.5t-52.5 71.5t-18.5 91.5q0 76 32 130.5t91 90t142.5 52t186.5 16.5h58q0 44 -12 76t-36.5 52.5t-63 30t-91.5 9.5q-24 0 -53 -3t-59 -9t-60 -14.5t-57 -19.5l-34 124
q72 29 146 46t143 17q80 0 142.5 -19.5t105.5 -61.5t65.5 -108t22.5 -160v-455zM128 591h640v-130h-640v130zM527 1077q-125 0 -194 -29t-69 -97q0 -50 32 -81.5t86 -31.5q44 0 84.5 16t72 44.5t50.5 66t19 81.5v31h-81z" />
    <glyph glyph-name="guillemotleft" unicode="&#xab;" horiz-adv-x="1244" 
d="M1090 1035l101 -90l-295 -346l298 -356l-105 -95l-439 433zM560 1065l99 -91l-330 -373l331 -385l-105 -95l-471 462z" />
    <glyph glyph-name="logicalnot" unicode="&#xac;" horiz-adv-x="1573" 
d="M181 862h1212v-575h-156v405h-1056v170z" />
    <glyph glyph-name="uni00AD" unicode="&#xad;" horiz-adv-x="706" 
d="M102 643h505v-164h-505v164z" />
    <glyph glyph-name="registered" unicode="&#xae;" horiz-adv-x="1753" 
d="M873 1632q-121 0 -212 -42t-151.5 -112.5t-90.5 -163.5t-30 -196q0 -117 36.5 -212t102 -162t155 -103.5t194.5 -36.5q108 0 197.5 37t154 104.5t100 161t35.5 206.5q0 112 -35 207.5t-99.5 164.5t-155 108t-201.5 39zM877 1753q91 0 171.5 -22t148.5 -62t121.5 -97
t90.5 -128t57 -153t20 -173q0 -129 -43 -244t-123 -202t-193 -137.5t-254 -50.5q-137 0 -248.5 47t-191 130.5t-123 199t-43.5 252.5q0 131 42 247.5t120.5 203.5t191.5 138t256 51zM871 1170q27 0 49 8t38 21t25 29t9 33q0 56 -35.5 80.5t-98.5 24.5h-100v-196h113z
M758 1064v-265h-137v675h250q63 0 112 -11t83 -34t52 -60t18 -89q0 -30 -8.5 -55.5t-25.5 -46t-42 -36.5t-59 -26q-2 0 -2.5 -0.5t-2.5 -1.5q21 -5 40 -16.5t37 -28.5t34 -40.5t30 -53.5l84 -176h-148l-85 169q-14 28 -30 47t-35 29.5t-42 15t-51 4.5h-72z" />
    <glyph glyph-name="macron" unicode="&#xaf;" 
d="M138 1516h581v-130h-581v130z" />
    <glyph glyph-name="degree" unicode="&#xb0;" horiz-adv-x="930" 
d="M233 1201q0 -39 16 -73.5t43 -60t63.5 -40.5t78.5 -15q41 0 77.5 15t64 40.5t43.5 60t16 73.5t-16 73.5t-43 60t-63.5 40.5t-78.5 15t-78.5 -15t-63.5 -40.5t-43 -60t-16 -73.5zM79 1201q0 69 28.5 129.5t77 105.5t113 70.5t137.5 25.5q75 0 140 -25.5t113 -70t75.5 -105
t27.5 -130.5q0 -69 -28.5 -129.5t-77 -105.5t-113 -70.5t-137.5 -25.5t-137.5 25.5t-113 70.5t-77 105.5t-28.5 129.5z" />
    <glyph glyph-name="plusminus" unicode="&#xb1;" horiz-adv-x="1570" 
d="M1305 879v-154h-443v-441h-155v441h-442v154h442v399h155v-399h443z" />
    <glyph glyph-name="twosuperior" unicode="&#xb2;" horiz-adv-x="698" 
d="M624 808v-140h-548v140l179 178q55 55 87.5 93.5t50 67t22.5 50.5t5 45q0 63 -32 97t-97 34q-47 0 -98.5 -10.5t-95.5 -33.5l-36 136q26 11 57 21t64 17t65.5 11t60.5 4q72 0 126 -17t90 -49t53.5 -78t17.5 -103q0 -33 -5.5 -65t-26 -70.5t-60 -86.5t-106.5 -113
l-132 -128h359z" />
    <glyph glyph-name="threesuperior" unicode="&#xb3;" horiz-adv-x="659" 
d="M436 1121q37 -9 67.5 -27t52.5 -42.5t33.5 -54.5t11.5 -63q0 -68 -22.5 -120t-65 -88t-103.5 -54.5t-137 -18.5q-59 0 -108.5 7.5t-108.5 25.5l40 148q43 -16 94.5 -26t99.5 -10q65 0 100 29t35 78q0 30 -12.5 52.5t-38 37t-63.5 22t-89 7.5h-58v140h71q41 0 72.5 9.5
t52.5 26t32 38.5t11 46q0 42 -30.5 66t-87.5 24q-48 0 -89 -9.5t-78 -23.5l-38 130q22 10 48.5 19t56 15.5t59 10t57.5 3.5q140 0 208.5 -51t68.5 -155q0 -32 -10.5 -62t-29 -55.5t-45 -44.5t-57.5 -30z" />
    <glyph glyph-name="acute" unicode="&#xb4;" 
d="M324 1293l-107 75l257 343l147 -96z" />
    <glyph glyph-name="uni00B5" unicode="&#xb5;" horiz-adv-x="1184" 
d="M129 -426v1546h165v-651q0 -53 6 -98.5t19 -83t33.5 -66.5t49.5 -49t67.5 -30.5t86.5 -10.5q82 0 136.5 29.5t87.5 78.5t46.5 112.5t13.5 131.5v637h167v-862q0 -38 3.5 -62.5t11 -38.5t18.5 -20t26 -6q23 0 37.5 4.5t24.5 11.5l24 -127q-15 -9 -33.5 -18t-38.5 -16
t-40 -11t-39 -4q-38 0 -64.5 12.5t-44.5 34t-28.5 50.5t-16.5 61q-23 -38 -57 -67t-74.5 -49t-86.5 -30.5t-92 -10.5t-83 8t-67 22t-52.5 34t-40.5 43v-505h-165z" />
    <glyph glyph-name="paragraph" unicode="&#xb6;" horiz-adv-x="1196" 
d="M1010 1493v-1690h-131v1567h-179v-1567h-133v846q-97 8 -176 39.5t-134.5 84.5t-85.5 128t-30 170q0 96 33 173.5t92 133t142 85.5t182 30h420z" />
    <glyph glyph-name="glyph122" unicode="&#xb7;" horiz-adv-x="515" 
d="M156 710q0 63 24 91.5t76 28.5t77 -28.5t25 -91.5t-25 -91t-77 -28t-76 28t-24 91z" />
    <glyph glyph-name="cedilla" unicode="&#xb8;" horiz-adv-x="856" 
d="M237 -485q23 34 44 69.5t36.5 75t24.5 83.5t9 96h173q0 -60 -15.5 -112.5t-42 -100.5t-60 -91.5t-69.5 -83.5z" />
    <glyph glyph-name="onesuperior" unicode="&#xb9;" horiz-adv-x="691" 
d="M127 808h177v545l-185 -74l-25 137l213 87h166v-695h162v-140h-508v140z" />
    <glyph glyph-name="ordmasculine" unicode="&#xba;" horiz-adv-x="859" 
d="M420 1383q-39 0 -73.5 -16t-59.5 -48t-39.5 -80.5t-14.5 -114.5q0 -77 14.5 -131.5t41 -89t64.5 -50.5t86 -16q39 0 73.5 15.5t59.5 48t39.5 81t14.5 114.5q0 77 -14.5 131.5t-41 89t-64.5 50.5t-86 16zM439 1522q77 0 141.5 -27.5t111 -78.5t72.5 -125t26 -167
q0 -103 -26 -182.5t-74 -133.5t-116.5 -82t-153.5 -28q-77 0 -141.5 27.5t-111 78.5t-72.5 125t-26 167q0 102 26 181.5t74 134t116.5 82.5t153.5 28zM119 591h640v-130h-640v130z" />
    <glyph glyph-name="guillemotright" unicode="&#xbb;" horiz-adv-x="1244" 
d="M154.066 151.063l-100.994 89.9941l294.982 345.979l-297.981 355.979l104.993 94.9941l438.974 -432.974zM684.034 121.064l-98.9941 90.9951l329.98 372.978l-330.98 384.977l104.994 94.9941l470.971 -461.973z" />
    <glyph glyph-name="onequarter" unicode="&#xbc;" horiz-adv-x="1877" 
d="M1364 1543l136 -82l-1089 -1534l-136 82zM1476 641l-224 -321h224v321zM1442 835h203v-515h131v-141h-131v-179h-169v179h-378v170zM127 808h177v545l-185 -74l-25 137l213 87h166v-695h162v-140h-508v140z" />
    <glyph glyph-name="onehalf" unicode="&#xbd;" horiz-adv-x="1864" 
d="M1364 1543l136 -82l-1089 -1534l-136 82zM127 808h177v545l-185 -74l-25 137l213 87h166v-695h162v-140h-508v140zM1697 140v-140h-548v140l179 178q55 55 87.5 93.5t50 67t22.5 50.5t5 45q0 63 -32 97t-97 34q-47 0 -98.5 -10.5t-95.5 -33.5l-36 136q26 11 57 21t64 17
t65.5 11t60.5 4q72 0 126 -17t90 -49t53.5 -78t17.5 -103q0 -33 -5.5 -65t-26 -70.5t-60 -86.5t-106.5 -113l-133 -128h360z" />
    <glyph glyph-name="threequarters" unicode="&#xbe;" horiz-adv-x="1891" 
d="M1364 1543l136 -82l-1089 -1534l-136 82zM480 1121q37 -9 67.5 -27t52.5 -42.5t33.5 -54.5t11.5 -63q0 -68 -22.5 -120t-65 -88t-103.5 -54.5t-137 -18.5q-59 0 -108.5 7.5t-108.5 25.5l40 148q43 -16 94.5 -26t99.5 -10q65 0 100 29t35 78q0 30 -12.5 52.5t-38 37
t-63.5 22t-89 7.5h-58v140h71q41 0 72.5 9.5t52.5 26t32 38.5t11 46q0 42 -30.5 66t-87.5 24q-48 0 -89 -9.5t-78 -23.5l-38 130q22 10 48.5 19t56 15.5t59 10t57.5 3.5q140 0 208.5 -51t68.5 -155q0 -32 -10.5 -62t-29 -55.5t-45 -44.5t-57.5 -30zM1476 641l-224 -321h224
v321zM1442 835h203v-515h131v-141h-131v-179h-169v179h-378v170z" />
    <glyph glyph-name="questiondown" unicode="&#xbf;" horiz-adv-x="1011" 
d="M126.054 305.072q0 67.9961 25.499 121.992q25.498 53.9971 63.4961 100.494q37.9971 46.4971 82.9951 88.9951q44.9971 42.4971 82.9941 87.9941q37.998 45.4971 63.4961 97.4941q25.499 51.9971 25.499 116.993v171.989h174.989v-140.991q0 -91.9941 -24.499 -160.49
q-24.498 -68.4961 -61.4961 -120.992q-36.9971 -52.4971 -80.4951 -93.9951q-43.4971 -41.4971 -80.4951 -78.9951q-36.9971 -37.4971 -61.4961 -75.4951q-24.498 -37.998 -24.498 -83.9951q0 -47.9971 16.499 -84.4941q16.499 -36.498 46.4971 -60.4971
q29.998 -23.998 71.9951 -35.9971q41.998 -12 92.9941 -12q30.999 0 60.9971 3.5t62.4961 10.5q32.498 6.99902 68.9951 18.998q36.498 12 78.4951 27.998l51.9971 -149.99q-41.9971 -19.999 -84.9941 -35.498q-42.998 -15.499 -86.4951 -25.998
q-43.4971 -10.5 -86.4951 -15.499q-42.9971 -5 -84.9941 -5q-89.9951 0 -162.49 21.499q-72.4961 21.498 -123.992 63.9961q-51.4971 42.4971 -79.4951 104.493q-27.999 61.9961 -27.999 142.991zM669.021 1393.01q0 -66.9961 -26.498 -97.9941t-82.4951 -30.998
q-57.9961 0 -86.4941 30.998q-28.499 30.998 -28.499 97.9941q0 68.9961 28.499 97.9941q28.498 28.998 86.4941 28.998q56.9971 0 82.9951 -28.998t25.998 -97.9941z" />
    <glyph glyph-name="Agrave" unicode="&#xc0;" horiz-adv-x="1349" 
d="M978 391h-617l-130 -391h-189l528 1493h209l526 -1493h-196zM416 543h505l-254 751zM720 1611l-428 170l112 128l392 -209z" />
    <glyph glyph-name="Aacute" unicode="&#xc1;" horiz-adv-x="1349" 
d="M978 391h-617l-130 -391h-189l528 1493h209l526 -1493h-196zM416 543h505l-254 751zM616 1608l-80 92l392 209l116 -131z" />
    <glyph glyph-name="Acircumflex" unicode="&#xc2;" horiz-adv-x="1349" 
d="M978 391h-617l-130 -391h-189l528 1493h209l526 -1493h-196zM416 543h505l-254 751zM677 1904l298 -207l-80 -90l-228 128l-218 -128l-68 84z" />
    <glyph glyph-name="Atilde" unicode="&#xc3;" horiz-adv-x="1349" 
d="M978 391h-617l-130 -391h-189l528 1493h209l526 -1493h-196zM416 543h505l-254 751zM803 1644q-56 0 -93 14.5t-65.5 32t-53 32t-55.5 14.5q-21 0 -37 -8.5t-28.5 -22t-23.5 -30.5t-22 -35l-93 63q14 31 35 61.5t48.5 54.5t62 38.5t75.5 14.5q51 0 86 -14.5t64 -32.5
t56 -32.5t62 -14.5q19 0 35 7.5t29 20.5t23 30.5t18 36.5l95 -59q-34 -90 -87.5 -130.5t-130.5 -40.5z" />
    <glyph glyph-name="Adieresis" unicode="&#xc4;" horiz-adv-x="1349" 
d="M363 1730q0 58 22.5 84.5t73.5 26.5q50 0 74 -26.5t24 -84.5t-24 -83.5t-74 -25.5q-51 0 -73.5 25.5t-22.5 83.5zM793 1730q0 58 22.5 84.5t73.5 26.5q48 0 72.5 -26.5t24.5 -84.5t-24.5 -83.5t-72.5 -25.5q-51 0 -73.5 25.5t-22.5 83.5zM978 391h-617l-130 -391h-189
l528 1493h209l526 -1493h-196zM416 543h505l-254 751z" />
    <glyph glyph-name="Aring" unicode="&#xc5;" horiz-adv-x="1349" 
d="M465 1670q0 41 15 79t42.5 67t67 46.5t87.5 17.5q52 0 90 -17.5t63 -46t37 -64.5t12 -73q0 -48 -15 -88t-43 -69q-18 -19 -41 -32l525 -1490h-196l-131 391h-617l-130 -391h-189l526 1488q-25 14 -45 34q-27 28 -42.5 65.5t-15.5 82.5zM416 543h505l-254 751zM576 1679
q0 -53 29.5 -78.5t71.5 -25.5q41 0 66.5 25t25.5 70q0 18 -6.5 36t-19 32t-30.5 22.5t-41 8.5q-44 0 -70 -25.5t-26 -64.5z" />
    <glyph glyph-name="AE" unicode="&#xc6;" horiz-adv-x="1956" 
d="M961 391h-513l-218 -391h-187l865 1493h921v-152h-692v-498h664v-152h-664v-539h710v-152h-886v391zM536 543h425v751z" />
    <glyph glyph-name="Ccedilla" unicode="&#xc7;" horiz-adv-x="1350" 
d="M584 -485q23 34 44 69.5t36.5 75t24.5 83.5t9 96h173q0 -60 -15.5 -112.5t-42 -100.5t-60 -91.5t-69.5 -83.5zM1270 197q-43 -45 -94.5 -85.5t-114.5 -71.5t-137.5 -49.5t-162.5 -18.5q-160 0 -280 58.5t-200 160.5t-120 240.5t-40 298.5q0 105 20 204.5t58 187t95 161
t130 126t163 82t195 29.5q70 0 136.5 -14.5t127.5 -42t116.5 -67t104.5 -88.5l-104 -129q-48 43 -95.5 75t-97 53.5t-101.5 32t-108 10.5q-74 0 -136.5 -23t-112.5 -64t-88.5 -96.5t-64 -121t-38.5 -138t-13 -146.5q0 -102 17.5 -188t49 -154.5t75 -120.5t96 -87
t112.5 -52.5t124 -17.5q55 0 108 13t103.5 36.5t97 55.5t87.5 71z" />
    <glyph glyph-name="Egrave" unicode="&#xc8;" horiz-adv-x="1164" 
d="M702 1611l-428 170l112 128l392 -209zM170 1493h867v-152h-692v-498h664v-152h-664v-539h710v-152h-885v1493z" />
    <glyph glyph-name="Eacute" unicode="&#xc9;" horiz-adv-x="1164" 
d="M548 1608l-80 92l392 209l116 -131zM170 1493h867v-152h-692v-498h664v-152h-664v-539h710v-152h-885v1493z" />
    <glyph glyph-name="Ecircumflex" unicode="&#xca;" horiz-adv-x="1164" 
d="M597 1904l298 -207l-80 -90l-228 128l-218 -128l-68 84zM170 1493h867v-152h-692v-498h664v-152h-664v-539h710v-152h-885v1493z" />
    <glyph glyph-name="Edieresis" unicode="&#xcb;" horiz-adv-x="1164" 
d="M298 1730q0 58 22.5 84.5t73.5 26.5q50 0 74 -26.5t24 -84.5t-24 -83.5t-74 -25.5q-51 0 -73.5 25.5t-22.5 83.5zM728 1730q0 58 22.5 84.5t73.5 26.5q48 0 72.5 -26.5t24.5 -84.5t-24.5 -83.5t-72.5 -25.5q-51 0 -73.5 25.5t-22.5 83.5zM170 1493h867v-152h-692v-498
h664v-152h-664v-539h710v-152h-885v1493z" />
    <glyph glyph-name="Igrave" unicode="&#xcc;" horiz-adv-x="515" 
d="M170 1493h175v-1493h-175v1493zM316 1611l-428 170l112 128l392 -209z" />
    <glyph glyph-name="Iacute" unicode="&#xcd;" horiz-adv-x="515" 
d="M170 1493h175v-1493h-175v1493zM198 1608l-80 92l392 209l116 -131z" />
    <glyph glyph-name="Icircumflex" unicode="&#xce;" horiz-adv-x="515" 
d="M170 1493h175v-1493h-175v1493zM263 1904l298 -207l-80 -90l-228 128l-218 -128l-68 84z" />
    <glyph glyph-name="Idieresis" unicode="&#xcf;" horiz-adv-x="515" 
d="M170 1493h175v-1493h-175v1493zM-50 1730q0 58 22.5 84.5t73.5 26.5q50 0 74 -26.5t24 -84.5t-24 -83.5t-74 -25.5q-51 0 -73.5 25.5t-22.5 83.5zM380 1730q0 58 22.5 84.5t73.5 26.5q48 0 72.5 -26.5t24.5 -84.5t-24.5 -83.5t-72.5 -25.5q-51 0 -73.5 25.5t-22.5 83.5z
" />
    <glyph glyph-name="Eth" unicode="&#xd0;" horiz-adv-x="1452" 
d="M12 837h165v656h415q204 0 345.5 -55t230 -153t128 -232t39.5 -293q0 -195 -54.5 -338t-154.5 -236.5t-241 -139.5t-313 -46h-395v707h-165v130zM352 1341v-504h299v-130h-299v-555h240q145 0 250 40t173 114.5t100.5 181.5t32.5 242q0 126 -28.5 237.5t-95 194.5
t-177 131t-275.5 48h-220z" />
    <glyph glyph-name="Ntilde" unicode="&#xd1;" horiz-adv-x="1424" 
d="M839 1644q-56 0 -93 14.5t-65.5 32t-53 32t-55.5 14.5q-21 0 -37 -8.5t-28.5 -22t-23.5 -30.5t-22 -35l-93 63q14 31 35 61.5t48.5 54.5t62 38.5t75.5 14.5q51 0 86 -14.5t64 -32.5t56 -32.5t62 -14.5q19 0 35 7.5t29 20.5t23 30.5t18 36.5l95 -59q-34 -90 -87.5 -130.5
t-130.5 -40.5zM170 1493h192l525 -856q34 -56 64.5 -107t56 -96.5t46 -85t34.5 -72.5l6 2q-2 31 -3.5 72.5t-3 99.5t-2 135.5t-0.5 179.5v728h169v-1493h-193l-528 855q-34 55 -64.5 106t-56 97t-45.5 85.5t-34 72.5l-6 -2q2 -31 3.5 -71t3 -87t2 -101.5t0.5 -114.5v-840
h-166v1493z" />
    <glyph glyph-name="Ograve" unicode="&#xd2;" horiz-adv-x="1532" 
d="M889 1611l-428 170l112 128l392 -209zM757 1350q-92 0 -174 -40.5t-144 -116.5t-98.5 -185.5t-36.5 -246.5q0 -153 38 -269t103 -194t150.5 -117t181.5 -39q100 0 183 42t143 119t93 185.5t33 241.5q0 153 -38 269t-103 194t-150.5 117.5t-180.5 39.5zM777 1520
q136 0 253 -51t202.5 -148t134 -238.5t48.5 -322.5q0 -178 -48.5 -323.5t-135.5 -248.5t-208 -159.5t-266 -56.5q-137 0 -254 50.5t-203 147.5t-134.5 238t-48.5 322q0 178 50 324t138.5 249.5t209 160t262.5 56.5z" />
    <glyph glyph-name="Oacute" unicode="&#xd3;" horiz-adv-x="1532" 
d="M661 1608l-80 92l392 209l116 -131zM757 1350q-92 0 -174 -40.5t-144 -116.5t-98.5 -185.5t-36.5 -246.5q0 -153 38 -269t103 -194t150.5 -117t181.5 -39q100 0 183 42t143 119t93 185.5t33 241.5q0 153 -38 269t-103 194t-150.5 117.5t-180.5 39.5zM777 1520
q136 0 253 -51t202.5 -148t134 -238.5t48.5 -322.5q0 -178 -48.5 -323.5t-135.5 -248.5t-208 -159.5t-266 -56.5q-137 0 -254 50.5t-203 147.5t-134.5 238t-48.5 322q0 178 50 324t138.5 249.5t209 160t262.5 56.5z" />
    <glyph glyph-name="Ocircumflex" unicode="&#xd4;" horiz-adv-x="1532" 
d="M767 1904l298 -207l-80 -90l-228 128l-218 -128l-68 84zM757 1350q-92 0 -174 -40.5t-144 -116.5t-98.5 -185.5t-36.5 -246.5q0 -153 38 -269t103 -194t150.5 -117t181.5 -39q100 0 183 42t143 119t93 185.5t33 241.5q0 153 -38 269t-103 194t-150.5 117.5t-180.5 39.5z
M777 1520q136 0 253 -51t202.5 -148t134 -238.5t48.5 -322.5q0 -178 -48.5 -323.5t-135.5 -248.5t-208 -159.5t-266 -56.5q-137 0 -254 50.5t-203 147.5t-134.5 238t-48.5 322q0 178 50 324t138.5 249.5t209 160t262.5 56.5z" />
    <glyph glyph-name="Otilde" unicode="&#xd5;" horiz-adv-x="1532" 
d="M893 1644q-56 0 -93 14.5t-65.5 32t-53 32t-55.5 14.5q-21 0 -37 -8.5t-28.5 -22t-23.5 -30.5t-22 -35l-93 63q14 31 35 61.5t48.5 54.5t62 38.5t75.5 14.5q51 0 86 -14.5t64 -32.5t56 -32.5t62 -14.5q19 0 35 7.5t29 20.5t23 30.5t18 36.5l95 -59q-34 -90 -87.5 -130.5
t-130.5 -40.5zM757 1350q-92 0 -174 -40.5t-144 -116.5t-98.5 -185.5t-36.5 -246.5q0 -153 38 -269t103 -194t150.5 -117t181.5 -39q100 0 183 42t143 119t93 185.5t33 241.5q0 153 -38 269t-103 194t-150.5 117.5t-180.5 39.5zM777 1520q136 0 253 -51t202.5 -148
t134 -238.5t48.5 -322.5q0 -178 -48.5 -323.5t-135.5 -248.5t-208 -159.5t-266 -56.5q-137 0 -254 50.5t-203 147.5t-134.5 238t-48.5 322q0 178 50 324t138.5 249.5t209 160t262.5 56.5z" />
    <glyph glyph-name="Odieresis" unicode="&#xd6;" horiz-adv-x="1532" 
d="M455 1730q0 58 22.5 84.5t73.5 26.5q50 0 74 -26.5t24 -84.5t-24 -83.5t-74 -25.5q-51 0 -73.5 25.5t-22.5 83.5zM885 1730q0 58 22.5 84.5t73.5 26.5q48 0 72.5 -26.5t24.5 -84.5t-24.5 -83.5t-72.5 -25.5q-51 0 -73.5 25.5t-22.5 83.5zM757 1350q-92 0 -174 -40.5
t-144 -116.5t-98.5 -185.5t-36.5 -246.5q0 -153 38 -269t103 -194t150.5 -117t181.5 -39q100 0 183 42t143 119t93 185.5t33 241.5q0 153 -38 269t-103 194t-150.5 117.5t-180.5 39.5zM777 1520q136 0 253 -51t202.5 -148t134 -238.5t48.5 -322.5q0 -178 -48.5 -323.5
t-135.5 -248.5t-208 -159.5t-266 -56.5q-137 0 -254 50.5t-203 147.5t-134.5 238t-48.5 322q0 178 50 324t138.5 249.5t209 160t262.5 56.5z" />
    <glyph glyph-name="multiply" unicode="&#xd7;" horiz-adv-x="1478" 
d="M1120 1131l108 -109l-381 -386l413 -418l-110 -110l-413 417l-413 -418l-109 109l414 419l-382 388l110 110l382 -387z" />
    <glyph glyph-name="Oslash" unicode="&#xd8;" horiz-adv-x="1531" 
d="M777 1520q136 0 253 -51q74 -32 135 -83l159 211l123 -89l-177 -235q59 -82 96 -191q49 -141 49 -322q0 -191 -50 -337.5t-138 -247t-208.5 -152t-262.5 -51.5q-137 0 -254 50q-65 29 -121 71l-170 -226l-123 88l185 246q-67 88 -108 207q-48 141 -48 322q0 190 50 337.5
t138 248t209 152.5t263 52zM756 1350q-92 0 -174 -40.5t-144 -116.5t-98.5 -185.5t-36.5 -246.5q0 -153 38 -269q23 -71 55 -127l654 868q-51 49 -113 77q-86 40 -181 40zM595 181q86 -39 182 -39q92 0 174 40.5t143.5 116.5t97.5 185t36 246q0 153 -38 269q-20 59 -45 108
l-650 -862q46 -40 100 -64z" />
    <glyph glyph-name="Ugrave" unicode="&#xd9;" horiz-adv-x="1407" 
d="M767 1617l-428 170l112 128l392 -209zM166 1493h175v-862q0 -105 17.5 -194.5t61 -155t117 -102.5t185.5 -37q104 0 172 35t108 97t56 145.5t16 181.5v892h167v-862q0 -149 -26 -270.5t-88 -207.5t-165.5 -133.5t-259.5 -47.5q-152 0 -254.5 44t-165 126t-89.5 198.5
t-27 260.5v892z" />
    <glyph glyph-name="Uacute" unicode="&#xda;" horiz-adv-x="1407" 
d="M617 1608l-80 92l392 209l116 -131zM166 1493h175v-862q0 -105 17.5 -194.5t61 -155t117 -102.5t185.5 -37q104 0 172 35t108 97t56 145.5t16 181.5v892h167v-862q0 -149 -26 -270.5t-88 -207.5t-165.5 -133.5t-259.5 -47.5q-152 0 -254.5 44t-165 126t-89.5 198.5
t-27 260.5v892z" />
    <glyph glyph-name="Ucircumflex" unicode="&#xdb;" horiz-adv-x="1407" 
d="M704 1904l298 -207l-80 -90l-228 128l-218 -128l-68 84zM166 1493h175v-862q0 -105 17.5 -194.5t61 -155t117 -102.5t185.5 -37q104 0 172 35t108 97t56 145.5t16 181.5v892h167v-862q0 -149 -26 -270.5t-88 -207.5t-165.5 -133.5t-259.5 -47.5q-152 0 -254.5 44
t-165 126t-89.5 198.5t-27 260.5v892z" />
    <glyph glyph-name="Udieresis" unicode="&#xdc;" horiz-adv-x="1407" 
d="M392 1730q0 58 22.5 84.5t73.5 26.5q50 0 74 -26.5t24 -84.5t-24 -83.5t-74 -25.5q-51 0 -73.5 25.5t-22.5 83.5zM822 1730q0 58 22.5 84.5t73.5 26.5q48 0 72.5 -26.5t24.5 -84.5t-24.5 -83.5t-72.5 -25.5q-51 0 -73.5 25.5t-22.5 83.5zM166 1493h175v-862
q0 -105 17.5 -194.5t61 -155t117 -102.5t185.5 -37q104 0 172 35t108 97t56 145.5t16 181.5v892h167v-862q0 -149 -26 -270.5t-88 -207.5t-165.5 -133.5t-259.5 -47.5q-152 0 -254.5 44t-165 126t-89.5 198.5t-27 260.5v892z" />
    <glyph glyph-name="Yacute" unicode="&#xdd;" horiz-adv-x="1270" 
d="M587 1608l-80 92l392 209l116 -131zM544 0v641l-500 852h207l396 -684l384 684h197l-501 -852v-641h-183z" />
    <glyph glyph-name="Thorn" unicode="&#xde;" horiz-adv-x="1171" 
d="M170 1493h175v-260h225q147 0 247 -32t160.5 -89t87 -135t26.5 -169q0 -116 -41 -205.5t-114 -150.5t-172 -92t-216 -31h-203v-329h-175v1493zM345 1081v-600h223q79 0 141.5 19.5t106 57t66 92.5t22.5 126q0 68 -16.5 124.5t-57 96.5t-109 62t-171.5 22h-205z" />
    <glyph glyph-name="germandbls" unicode="&#xdf;" horiz-adv-x="1204" 
d="M165 1046q0 120 24 214.5t78 160.5t141 100.5t213 34.5q67 0 130.5 -21t113 -59.5t79.5 -92.5t30 -119q0 -69 -20 -120t-50 -90t-64.5 -69.5t-64.5 -59t-50 -58t-20 -66.5q0 -45 30 -78t74.5 -63t97 -60t97 -68.5t74.5 -89t30 -121.5q0 -77 -28.5 -141.5t-81 -110.5
t-127 -71.5t-165.5 -25.5q-34 0 -67.5 5t-65 15t-59.5 24.5t-51 32.5l62 137q17 -12 39.5 -22.5t49 -18.5t55 -13t57.5 -5q40 0 77 10t65.5 30t45.5 50.5t17 72.5q0 49 -30 83.5t-74.5 64t-97 58t-97 65.5t-74.5 87t-30 122q0 61 20 106t50 81t64.5 65.5t64.5 60t50 64.5
t20 79q0 44 -17.5 77.5t-48 55.5t-71.5 33t-88 11q-68 0 -113.5 -25.5t-73 -68.5t-39 -100t-11.5 -121v-1088h-170v1046z" />
    <glyph glyph-name="agrave" unicode="&#xe0;" horiz-adv-x="1109" 
d="M679 550q-95 0 -169.5 -12t-126 -39.5t-79 -71.5t-27.5 -108q0 -45 14 -80.5t38.5 -60.5t59 -38t75.5 -13q54 0 111.5 25t104 67t76.5 96t30 112v123h-107zM952 0h-153l-13 142l-3 1q-27 -37 -65.5 -68t-84 -54t-95.5 -36t-100 -13q-74 0 -136 23t-106.5 65t-69.5 100
t-25 129q0 115 45 192.5t124.5 125t188.5 68t236 20.5h91q0 73 -16.5 128.5t-51.5 93t-89.5 57t-129.5 19.5q-30 0 -67.5 -4.5t-78.5 -13.5t-83 -22t-79 -29l-32 139q98 44 188.5 64.5t171.5 20.5q94 0 173.5 -23t137.5 -78.5t90 -148t32 -231.5v-667zM516 1288l-294 317
l147 93l257 -340z" />
    <glyph glyph-name="aacute" unicode="&#xe1;" horiz-adv-x="1109" 
d="M679 550q-95 0 -169.5 -12t-126 -39.5t-79 -71.5t-27.5 -108q0 -45 14 -80.5t38.5 -60.5t59 -38t75.5 -13q54 0 111.5 25t104 67t76.5 96t30 112v123h-107zM952 0h-153l-13 142l-3 1q-27 -37 -65.5 -68t-84 -54t-95.5 -36t-100 -13q-74 0 -136 23t-106.5 65t-69.5 100
t-25 129q0 115 45 192.5t124.5 125t188.5 68t236 20.5h91q0 73 -16.5 128.5t-51.5 93t-89.5 57t-129.5 19.5q-30 0 -67.5 -4.5t-78.5 -13.5t-83 -22t-79 -29l-32 139q98 44 188.5 64.5t171.5 20.5q94 0 173.5 -23t137.5 -78.5t90 -148t32 -231.5v-667zM539 1293l-107 75
l257 343l147 -96z" />
    <glyph glyph-name="acircumflex" unicode="&#xe2;" horiz-adv-x="1109" 
d="M679 550q-95 0 -169.5 -12t-126 -39.5t-79 -71.5t-27.5 -108q0 -45 14 -80.5t38.5 -60.5t59 -38t75.5 -13q54 0 111.5 25t104 67t76.5 96t30 112v123h-107zM952 0h-153l-13 142l-3 1q-27 -37 -65.5 -68t-84 -54t-95.5 -36t-100 -13q-74 0 -136 23t-106.5 65t-69.5 100
t-25 129q0 115 45 192.5t124.5 125t188.5 68t236 20.5h91q0 73 -16.5 128.5t-51.5 93t-89.5 57t-129.5 19.5q-30 0 -67.5 -4.5t-78.5 -13.5t-83 -22t-79 -29l-32 139q98 44 188.5 64.5t171.5 20.5q94 0 173.5 -23t137.5 -78.5t90 -148t32 -231.5v-667zM756 1296l-232 185
l-219 -185l-101 92l329 296l324 -293z" />
    <glyph glyph-name="atilde" unicode="&#xe3;" horiz-adv-x="1109" 
d="M679 550q-95 0 -169.5 -12t-126 -39.5t-79 -71.5t-27.5 -108q0 -45 14 -80.5t38.5 -60.5t59 -38t75.5 -13q54 0 111.5 25t104 67t76.5 96t30 112v123h-107zM952 0h-153l-13 142l-3 1q-27 -37 -65.5 -68t-84 -54t-95.5 -36t-100 -13q-74 0 -136 23t-106.5 65t-69.5 100
t-25 129q0 115 45 192.5t124.5 125t188.5 68t236 20.5h91q0 73 -16.5 128.5t-51.5 93t-89.5 57t-129.5 19.5q-30 0 -67.5 -4.5t-78.5 -13.5t-83 -22t-79 -29l-32 139q98 44 188.5 64.5t171.5 20.5q94 0 173.5 -23t137.5 -78.5t90 -148t32 -231.5v-667zM679 1343
q-37 0 -65.5 10t-51.5 24.5t-41.5 32t-36 32t-35 24.5t-37.5 10q-21 0 -37 -10t-28.5 -25t-23.5 -34t-22 -37l-93 63q14 31 35 63t48.5 57.5t62 42t75.5 16.5q34 0 60.5 -10t48.5 -25t41 -32t37.5 -32t38 -25t42.5 -10q19 0 35 11t29 27.5t23 37t18 39.5l95 -59
q-34 -91 -87 -141t-131 -50z" />
    <glyph glyph-name="adieresis" unicode="&#xe4;" horiz-adv-x="1109" 
d="M679 550q-95 0 -169.5 -12t-126 -39.5t-79 -71.5t-27.5 -108q0 -45 14 -80.5t38.5 -60.5t59 -38t75.5 -13q54 0 111.5 25t104 67t76.5 96t30 112v123h-107zM952 0h-153l-13 142l-3 1q-27 -37 -65.5 -68t-84 -54t-95.5 -36t-100 -13q-74 0 -136 23t-106.5 65t-69.5 100
t-25 129q0 115 45 192.5t124.5 125t188.5 68t236 20.5h91q0 73 -16.5 128.5t-51.5 93t-89.5 57t-129.5 19.5q-30 0 -67.5 -4.5t-78.5 -13.5t-83 -22t-79 -29l-32 139q98 44 188.5 64.5t171.5 20.5q94 0 173.5 -23t137.5 -78.5t90 -148t32 -231.5v-667zM250 1489
q0 58 22.5 85t71.5 27q48 0 71.5 -27t23.5 -85q0 -59 -23.5 -85t-71.5 -26q-49 0 -71.5 26t-22.5 85zM652 1489q0 58 22.5 85t71.5 27q48 0 71 -27t23 -85q0 -59 -23 -85t-71 -26q-49 0 -71.5 26t-22.5 85z" />
    <glyph glyph-name="aring" unicode="&#xe5;" horiz-adv-x="1109" 
d="M679 550q-95 0 -169.5 -12t-126 -39.5t-79 -71.5t-27.5 -108q0 -45 14 -80.5t38.5 -60.5t59 -38t75.5 -13q54 0 111.5 25t104 67t76.5 96t30 112v123h-107zM952 0h-153l-13 142l-3 1q-27 -37 -65.5 -68t-84 -54t-95.5 -36t-100 -13q-74 0 -136 23t-106.5 65t-69.5 100
t-25 129q0 115 45 192.5t124.5 125t188.5 68t236 20.5h91q0 73 -16.5 128.5t-51.5 93t-89.5 57t-129.5 19.5q-30 0 -67.5 -4.5t-78.5 -13.5t-83 -22t-79 -29l-32 139q98 44 188.5 64.5t171.5 20.5q94 0 173.5 -23t137.5 -78.5t90 -148t32 -231.5v-667zM453 1479
q0 -53 29.5 -78.5t71.5 -25.5q41 0 66.5 25t25.5 70q0 18 -6.5 36t-19 32t-30.5 22.5t-41 8.5q-44 0 -70 -25.5t-26 -64.5zM342 1470q0 41 15 79t42.5 67t67 46.5t87.5 17.5q52 0 90 -17.5t63 -46t37 -64.5t12 -73q0 -48 -15 -88t-42.5 -68.5t-65.5 -44t-83 -15.5
t-83.5 15.5t-66 43.5t-43 65.5t-15.5 82.5z" />
    <glyph glyph-name="ae" unicode="&#xe6;" horiz-adv-x="1798" 
d="M1673 68q-87 -47 -200 -71.5t-241 -24.5q-68 0 -130 18.5t-114.5 51.5t-92 78.5t-60.5 99.5q-36 -66 -84.5 -113t-101.5 -77t-107.5 -44t-103.5 -14q-75 0 -137.5 23t-106.5 65t-68.5 100t-24.5 129q0 115 45.5 192.5t125.5 125t188.5 68t234.5 20.5h91q0 73 -16.5 128.5
t-51.5 93t-89 57t-129 19.5q-30 0 -68 -4.5t-79 -13.5t-83 -22t-79 -29l-32 139q98 44 188.5 64.5t171.5 20.5q61 0 116.5 -9t102.5 -29.5t85 -54t65 -81.5q66 85 160.5 129.5t206.5 44.5q91 0 171.5 -30t141.5 -96.5t96.5 -172.5t35.5 -257v-76h-755q5 -93 25 -165.5
t57.5 -122.5t93.5 -76t132 -26q46 0 95.5 4.5t98.5 14.5t96 24t88 34zM679 550q-94 0 -168.5 -12t-126.5 -39.5t-79.5 -71.5t-27.5 -108q0 -45 14 -80.5t38.5 -60.5t59 -38t75.5 -13q63 0 121 26t102.5 74t71.5 114.5t27 147.5v61h-107zM1524 661q-6 81 -23.5 142.5
t-51.5 103.5t-86.5 63.5t-128.5 21.5q-65 0 -115.5 -25t-86.5 -69.5t-57 -105t-25 -132.5z" />
    <glyph glyph-name="ccedilla" unicode="&#xe7;" horiz-adv-x="1014" 
d="M890 928q-56 30 -129.5 47.5t-145.5 17.5q-63 0 -121.5 -24.5t-104 -76t-73 -130.5t-27.5 -187q0 -98 22.5 -180.5t66 -142t108 -92.5t149.5 -33q33 0 69 5t72 14t69.5 21.5t60.5 27.5l51 -131q-31 -20 -71.5 -37t-86 -29t-93 -19t-91.5 -7q-89 0 -161.5 21.5t-128 60.5
t-96 92t-66.5 117t-38.5 135.5t-12.5 146.5q0 150 40 262.5t110.5 188.5t166 114t206.5 38q41 0 82 -5.5t80 -16t75 -26.5t68 -37zM387 -485q23 34 44 69.5t36.5 75t24.5 83.5t9 96h173q0 -60 -15.5 -112.5t-42 -100.5t-60 -91.5t-69.5 -83.5z" />
    <glyph glyph-name="egrave" unicode="&#xe8;" horiz-adv-x="1144" 
d="M993 68q-84 -47 -193.5 -71.5t-233.5 -24.5q-105 0 -189.5 41.5t-143.5 116.5t-90.5 180.5t-31.5 234.5q0 145 36 257t99.5 189t151 117t189.5 40q115 0 196.5 -42.5t134 -117t77 -176t24.5 -219.5v-77h-731q5 -90 24.5 -162.5t55.5 -123t90.5 -77.5t128.5 -27
q45 0 92.5 4.5t94.5 14.5t92 24t85 34zM844 660q-6 81 -23 143t-49.5 104t-82.5 63.5t-122 21.5q-63 0 -111 -24t-81.5 -67.5t-54 -105t-28.5 -135.5h552zM566 1288l-294 317l147 93l257 -340z" />
    <glyph glyph-name="eacute" unicode="&#xe9;" horiz-adv-x="1144" 
d="M993 68q-84 -47 -193.5 -71.5t-233.5 -24.5q-105 0 -189.5 41.5t-143.5 116.5t-90.5 180.5t-31.5 234.5q0 145 36 257t99.5 189t151 117t189.5 40q115 0 196.5 -42.5t134 -117t77 -176t24.5 -219.5v-77h-731q5 -90 24.5 -162.5t55.5 -123t90.5 -77.5t128.5 -27
q45 0 92.5 4.5t94.5 14.5t92 24t85 34zM844 660q-6 81 -23 143t-49.5 104t-82.5 63.5t-122 21.5q-63 0 -111 -24t-81.5 -67.5t-54 -105t-28.5 -135.5h552zM620 1293l-107 75l257 343l147 -96z" />
    <glyph glyph-name="ecircumflex" unicode="&#xea;" horiz-adv-x="1144" 
d="M993 68q-84 -47 -193.5 -71.5t-233.5 -24.5q-105 0 -189.5 41.5t-143.5 116.5t-90.5 180.5t-31.5 234.5q0 145 36 257t99.5 189t151 117t189.5 40q115 0 196.5 -42.5t134 -117t77 -176t24.5 -219.5v-77h-731q5 -90 24.5 -162.5t55.5 -123t90.5 -77.5t128.5 -27
q45 0 92.5 4.5t94.5 14.5t92 24t85 34zM844 660q-6 81 -23 143t-49.5 104t-82.5 63.5t-122 21.5q-63 0 -111 -24t-81.5 -67.5t-54 -105t-28.5 -135.5h552zM858 1296l-232 185l-219 -185l-101 92l329 296l324 -293z" />
    <glyph glyph-name="edieresis" unicode="&#xeb;" horiz-adv-x="1144" 
d="M993 68q-84 -47 -193.5 -71.5t-233.5 -24.5q-105 0 -189.5 41.5t-143.5 116.5t-90.5 180.5t-31.5 234.5q0 145 36 257t99.5 189t151 117t189.5 40q115 0 196.5 -42.5t134 -117t77 -176t24.5 -219.5v-77h-731q5 -90 24.5 -162.5t55.5 -123t90.5 -77.5t128.5 -27
q45 0 92.5 4.5t94.5 14.5t92 24t85 34zM844 660q-6 81 -23 143t-49.5 104t-82.5 63.5t-122 21.5q-63 0 -111 -24t-81.5 -67.5t-54 -105t-28.5 -135.5h552zM313 1489q0 58 22.5 85t71.5 27q48 0 71.5 -27t23.5 -85q0 -59 -23.5 -85t-71.5 -26q-49 0 -71.5 26t-22.5 85z
M715 1489q0 58 22.5 85t71.5 27q48 0 71 -27t23 -85q0 -59 -23 -85t-71 -26q-49 0 -71.5 26t-22.5 85z" />
    <glyph glyph-name="igrave" unicode="&#xec;" horiz-adv-x="495" 
d="M228 1288l-294 317l147 93l257 -340zM165 1120h165v-1120h-165v1120z" />
    <glyph glyph-name="iacute" unicode="&#xed;" horiz-adv-x="495" 
d="M269 1293l-107 75l257 343l147 -96zM165 1120h165v-1120h-165v1120z" />
    <glyph glyph-name="icircumflex" unicode="&#xee;" horiz-adv-x="495" 
d="M165 1120h165v-1120h-165v1120zM474 1296l-232 185l-219 -185l-101 92l329 296l324 -293z" />
    <glyph glyph-name="idieresis" unicode="&#xef;" horiz-adv-x="495" 
d="M-43 1489q0 58 22.5 85t71.5 27q48 0 71.5 -27t23.5 -85q0 -59 -23.5 -85t-71.5 -26q-49 0 -71.5 26t-22.5 85zM359 1489q0 58 22.5 85t71.5 27q48 0 71 -27t23 -85q0 -59 -23 -85t-71 -26q-49 0 -71.5 26t-22.5 85zM165 1120h165v-1120h-165v1120z" />
    <glyph glyph-name="eth" unicode="&#xf0;" horiz-adv-x="1186" 
d="M800 916q-41 15 -87 23.5t-88 8.5q-96 0 -160.5 -29.5t-104 -80t-56 -118.5t-16.5 -145q0 -107 18.5 -190t56.5 -140.5t97.5 -87.5t142.5 -30q86 0 143 35t90.5 93t47.5 134t14 157q0 51 -5 102.5t-16.5 99.5t-30.5 91t-46 77zM708 1344q93 -93 162 -191.5t114.5 -197.5
t68.5 -195t23 -184q0 -127 -28 -237.5t-87.5 -192t-153 -128t-224.5 -46.5q-126 0 -215.5 47t-146.5 126.5t-83.5 183t-26.5 216.5q0 100 25.5 199t82 178.5t147 129t220.5 49.5q13 0 31.5 -1t38 -3t38 -4.5t31.5 -5.5q-18 27 -36.5 52.5t-38 49t-40 44.5t-42.5 41
l-229 -110l-66 103l198 98q-9 10 -27.5 23.5t-40 27.5t-42 26t-34.5 20l98 105q17 -9 42 -24.5t51.5 -34t50.5 -37.5t39 -33l222 107l66 -109z" />
    <glyph glyph-name="ntilde" unicode="&#xf1;" horiz-adv-x="1198" 
d="M875 0v664q0 67 -10.5 127t-38 104.5t-74 70.5t-118.5 26q-54 0 -102 -18.5t-87.5 -49t-69 -71.5t-45.5 -86v-767h-165v1120h132l23 -136q22 33 55.5 62.5t76 52t93.5 36t109 13.5q105 0 179 -33t120 -93t67 -143.5t21 -184.5v-694h-166zM726 1343q-37 0 -65.5 10
t-51.5 24.5t-41.5 32t-36 32t-35 24.5t-37.5 10q-21 0 -37 -10t-28.5 -25t-23.5 -34t-22 -37l-93 63q14 31 35 63t48.5 57.5t62 42t75.5 16.5q34 0 60.5 -10t48.5 -25t41 -32t37.5 -32t38 -25t42.5 -10q19 0 35 11t29 27.5t23 37t18 39.5l95 -59q-34 -91 -87 -141t-131 -50z
" />
    <glyph glyph-name="ograve" unicode="&#xf2;" horiz-adv-x="1185" 
d="M583 993q-64 0 -118 -24.5t-93.5 -76t-61.5 -130.5t-22 -187q0 -120 21.5 -205t62.5 -139t99 -79t132 -25q64 0 118 24.5t93 76t61 130.5t22 187q0 120 -21.5 205t-62 139t-99 79t-131.5 25zM603 1148q100 0 186.5 -36t149.5 -108t99 -179.5t36 -249.5q0 -150 -35 -262.5
t-99.5 -188.5t-155 -114t-201.5 -38q-101 0 -187.5 36t-149.5 108t-99 179t-36 250q0 150 35 262.5t99.5 188.5t155.5 114t202 38zM551 1288l-294 317l147 93l257 -340z" />
    <glyph glyph-name="oacute" unicode="&#xf3;" horiz-adv-x="1185" 
d="M583 993q-64 0 -118 -24.5t-93.5 -76t-61.5 -130.5t-22 -187q0 -120 21.5 -205t62.5 -139t99 -79t132 -25q64 0 118 24.5t93 76t61 130.5t22 187q0 120 -21.5 205t-62 139t-99 79t-131.5 25zM603 1148q100 0 186.5 -36t149.5 -108t99 -179.5t36 -249.5q0 -150 -35 -262.5
t-99.5 -188.5t-155 -114t-201.5 -38q-101 0 -187.5 36t-149.5 108t-99 179t-36 250q0 150 35 262.5t99.5 188.5t155.5 114t202 38zM614 1293l-107 75l257 343l147 -96z" />
    <glyph glyph-name="ocircumflex" unicode="&#xf4;" horiz-adv-x="1185" 
d="M583 993q-64 0 -118 -24.5t-93.5 -76t-61.5 -130.5t-22 -187q0 -120 21.5 -205t62.5 -139t99 -79t132 -25q64 0 118 24.5t93 76t61 130.5t22 187q0 120 -21.5 205t-62 139t-99 79t-131.5 25zM603 1148q100 0 186.5 -36t149.5 -108t99 -179.5t36 -249.5q0 -150 -35 -262.5
t-99.5 -188.5t-155 -114t-201.5 -38q-101 0 -187.5 36t-149.5 108t-99 179t-36 250q0 150 35 262.5t99.5 188.5t155.5 114t202 38zM818 1296l-232 185l-219 -185l-101 92l329 296l324 -293z" />
    <glyph glyph-name="otilde" unicode="&#xf5;" horiz-adv-x="1185" 
d="M583 993q-64 0 -118 -24.5t-93.5 -76t-61.5 -130.5t-22 -187q0 -120 21.5 -205t62.5 -139t99 -79t132 -25q64 0 118 24.5t93 76t61 130.5t22 187q0 120 -21.5 205t-62 139t-99 79t-131.5 25zM603 1148q100 0 186.5 -36t149.5 -108t99 -179.5t36 -249.5q0 -150 -35 -262.5
t-99.5 -188.5t-155 -114t-201.5 -38q-101 0 -187.5 36t-149.5 108t-99 179t-36 250q0 150 35 262.5t99.5 188.5t155.5 114t202 38zM720 1343q-37 0 -65.5 10t-51.5 24.5t-41.5 32t-36 32t-35 24.5t-37.5 10q-21 0 -37 -10t-28.5 -25t-23.5 -34t-22 -37l-93 63q14 31 35 63
t48.5 57.5t62 42t75.5 16.5q34 0 60.5 -10t48.5 -25t41 -32t37.5 -32t38 -25t42.5 -10q19 0 35 11t29 27.5t23 37t18 39.5l95 -59q-34 -91 -87 -141t-131 -50z" />
    <glyph glyph-name="odieresis" unicode="&#xf6;" horiz-adv-x="1185" 
d="M583 993q-64 0 -118 -24.5t-93.5 -76t-61.5 -130.5t-22 -187q0 -120 21.5 -205t62.5 -139t99 -79t132 -25q64 0 118 24.5t93 76t61 130.5t22 187q0 120 -21.5 205t-62 139t-99 79t-131.5 25zM603 1148q100 0 186.5 -36t149.5 -108t99 -179.5t36 -249.5q0 -150 -35 -262.5
t-99.5 -188.5t-155 -114t-201.5 -38q-101 0 -187.5 36t-149.5 108t-99 179t-36 250q0 150 35 262.5t99.5 188.5t155.5 114t202 38zM298 1489q0 58 22.5 85t71.5 27q48 0 71.5 -27t23.5 -85q0 -59 -23.5 -85t-71.5 -26q-49 0 -71.5 26t-22.5 85zM700 1489q0 58 22.5 85
t71.5 27q48 0 71 -27t23 -85q0 -59 -23 -85t-71 -26q-49 0 -71.5 26t-22.5 85z" />
    <glyph glyph-name="divide" unicode="&#xf7;" horiz-adv-x="1571" 
d="M682 1084q0 60 25 87t75 27q49 0 75.5 -27t26.5 -87t-26.5 -86.5t-75.5 -26.5q-50 0 -75 26.5t-25 86.5zM686 184q0 60 25.5 87t74.5 27t75.5 -27t26.5 -87t-26.5 -86.5t-75.5 -26.5t-74.5 26.5t-25.5 86.5zM1305 719v-154h-1040v154h1040z" />
    <glyph glyph-name="oslash" unicode="&#xf8;" horiz-adv-x="1185" 
d="M261 -155l-118 65l111 197l-8 9q-63 72 -99 179t-36 250q0 150 35 262.5t99.5 188.5t155.5 114t202 38q100 0 186 -36l26 -12l115 203l118 -66l-123 -218q7 -7 14 -15q63 -72 99 -179.5t36 -249.5q0 -150 -35 -262.5t-99.5 -188.5t-155 -114t-201.5 -38q-101 0 -188 36
q-17 7 -33 15zM471 152q58 -25 132 -25q64 0 118 24.5t93 76t61 130.5t22 187q0 120 -22 205q-16 62 -41 108l-392 -692q14 -8 29 -14zM583 993q-64 0 -118 -24.5t-93.5 -76t-61.5 -130.5t-22 -187q0 -120 21 -205q15 -57 37 -100l389 688q-10 5 -21 10q-58 25 -131 25z" />
    <glyph glyph-name="ugrave" unicode="&#xf9;" horiz-adv-x="1200" 
d="M882 0l-7 120q-19 -31 -53 -58t-77.5 -47t-94 -31.5t-102.5 -11.5q-96 0 -169 24t-122.5 75t-74.5 130.5t-25 189.5v729h163v-699q0 -72 14.5 -127t44 -92t76 -56t111.5 -19q49 0 94.5 13.5t85 37t71 55.5t52.5 69v818h166v-1120h-153zM575 1288l-294 317l147 93
l257 -340z" />
    <glyph glyph-name="uacute" unicode="&#xfa;" horiz-adv-x="1200" 
d="M882 0l-7 120q-19 -31 -53 -58t-77.5 -47t-94 -31.5t-102.5 -11.5q-96 0 -169 24t-122.5 75t-74.5 130.5t-25 189.5v729h163v-699q0 -72 14.5 -127t44 -92t76 -56t111.5 -19q49 0 94.5 13.5t85 37t71 55.5t52.5 69v818h166v-1120h-153zM626 1293l-107 75l257 343l147 -96
z" />
    <glyph glyph-name="ucircumflex" unicode="&#xfb;" horiz-adv-x="1200" 
d="M882 0l-7 120q-19 -31 -53 -58t-77.5 -47t-94 -31.5t-102.5 -11.5q-96 0 -169 24t-122.5 75t-74.5 130.5t-25 189.5v729h163v-699q0 -72 14.5 -127t44 -92t76 -56t111.5 -19q49 0 94.5 13.5t85 37t71 55.5t52.5 69v818h166v-1120h-153zM824 1296l-232 185l-219 -185
l-101 92l329 296l324 -293z" />
    <glyph glyph-name="udieresis" unicode="&#xfc;" horiz-adv-x="1200" 
d="M882 0l-7 120q-19 -31 -53 -58t-77.5 -47t-94 -31.5t-102.5 -11.5q-96 0 -169 24t-122.5 75t-74.5 130.5t-25 189.5v729h163v-699q0 -72 14.5 -127t44 -92t76 -56t111.5 -19q49 0 94.5 13.5t85 37t71 55.5t52.5 69v818h166v-1120h-153zM304 1489q0 58 22.5 85t71.5 27
q48 0 71.5 -27t23.5 -85q0 -59 -23.5 -85t-71.5 -26q-49 0 -71.5 26t-22.5 85zM706 1489q0 58 22.5 85t71.5 27q48 0 71 -27t23 -85q0 -59 -23 -85t-71 -26q-49 0 -71.5 26t-22.5 85z" />
    <glyph glyph-name="yacute" unicode="&#xfd;" horiz-adv-x="1100" 
d="M148 -284q19 -7 43 -11.5t41 -4.5q43 0 86.5 41t86.5 113q30 50 60 111l-393 1155h180l224 -673q9 -29 19 -59t18.5 -59t16 -56t13.5 -50t9 -41q1 -8 2 -14q12 30 23 61q42 111 81.5 230t76.5 236t70 226t62 199h166q-36 -118 -75.5 -248t-82 -262.5t-89.5 -263
t-97.5 -249t-105 -219.5t-113 -175t-121.5 -116t-131 -42q-15 0 -30.5 2t-30.5 6t-29 9.5t-27 12.5zM630 1293l-107 75l257 343l147 -96z" />
    <glyph glyph-name="thorn" unicode="&#xfe;" horiz-adv-x="1177" 
d="M165 1559h165v-389q0 -42 -4 -92t-11 -93l4 -1q21 38 57.5 68.5t80.5 51.5t90 32.5t85 11.5q112 0 194 -39t135 -112.5t79 -179.5t26 -239q0 -130 -31.5 -241t-94.5 -192t-158 -127t-223 -46q-56 0 -114 10t-115 30v-438h-165v1985zM582 127q79 0 137 32.5t96 89
t57 133.5t19 166q0 116 -20 200t-56.5 138.5t-89.5 80.5t-119 26q-48 0 -92 -20t-80 -52.5t-63 -73t-41 -80.5v-555q24 -20 54 -35.5t63.5 -26.5t68 -17t66.5 -6z" />
    <glyph glyph-name="ydieresis" unicode="&#xff;" horiz-adv-x="1100" 
d="M148 -284q19 -7 43 -11.5t41 -4.5q43 0 86.5 41t86.5 113q30 50 60 111l-393 1155h180l224 -673q9 -29 19 -59t18.5 -59t16 -56t13.5 -50t9 -41q1 -8 2 -14q12 30 23 61q42 111 81.5 230t76.5 236t70 226t62 199h166q-36 -118 -75.5 -248t-82 -262.5t-89.5 -263
t-97.5 -249t-105 -219.5t-113 -175t-121.5 -116t-131 -42q-15 0 -30.5 2t-30.5 6t-29 9.5t-27 12.5zM283 1489q0 58 22.5 85t71.5 27q48 0 71.5 -27t23.5 -85q0 -59 -23.5 -85t-71.5 -26q-49 0 -71.5 26t-22.5 85zM685 1489q0 58 22.5 85t71.5 27q48 0 71 -27t23 -85
q0 -59 -23 -85t-71 -26q-49 0 -71.5 26t-22.5 85z" />
    <glyph glyph-name="dotlessi" unicode="&#x131;" horiz-adv-x="495" 
d="M165 1120h165v-1120h-165v1120z" />
    <glyph glyph-name="Lslash" unicode="&#x141;" horiz-adv-x="1085" 
d="M-39 519l218 176v798h175v-656l298 242l91 -105l-389 -315v-507h677v-152h-852v517l-127 -103z" />
    <glyph glyph-name="lslash" unicode="&#x142;" horiz-adv-x="584" 
d="M11 676l196 150v730h165v-603l118 91l79 -98l-197 -152v-794h-165v668l-117 -90z" />
    <glyph glyph-name="OE" unicode="&#x152;" horiz-adv-x="1933" 
d="M1806 1493v-152h-638v-498h610v-152h-610v-539h656v-152h-831q-47 -14 -94.5 -21t-97.5 -7q-146 0 -271.5 50.5t-217 147.5t-143.5 238t-52 322q0 190 53.5 337.5t148 248t223 152.5t279.5 52q54 0 104 -6.5t98 -20.5h783zM993 1302q-48 21 -95 34.5t-97 13.5
q-101 0 -191 -40.5t-157.5 -116.5t-107.5 -185.5t-40 -246.5q0 -153 42 -269t113 -194t164.5 -117t196.5 -39q45 0 87.5 12t84.5 29v1119z" />
    <glyph glyph-name="oe" unicode="&#x153;" horiz-adv-x="1931" 
d="M1806 68q-87 -47 -200 -71.5t-241 -24.5q-75 0 -135 17.5t-108 48t-84 71t-62 86.5q-64 -106 -162.5 -164.5t-230.5 -58.5q-101 0 -187.5 36t-149.5 108t-99 179t-36 250q0 150 35 262.5t99.5 188.5t155.5 114t202 38q125 0 225.5 -53.5t163.5 -160.5q66 105 168.5 159.5
t227.5 54.5q91 0 171.5 -30t141.5 -96.5t96.5 -172.5t35.5 -257v-76h-756q5 -90 24.5 -162.5t57 -123t93.5 -77.5t134 -27q46 0 95.5 4.5t98.5 14.5t96 24t88 34zM583 993q-64 0 -118 -24.5t-93.5 -76t-61.5 -130.5t-22 -187q0 -120 21.5 -205t62.5 -139t99 -79t132 -25
q64 0 118 24.5t93 76t61 130.5t22 187q0 120 -21.5 205t-62 139t-99 79t-131.5 25zM1657 660q-6 81 -24 143t-52 104t-86.5 63.5t-127.5 21.5q-65 0 -115 -24t-85 -67.5t-56.5 -105t-30.5 -135.5h577z" />
    <glyph glyph-name="Scaron" unicode="&#x160;" horiz-adv-x="1158" 
d="M924 1238q-32 21 -68 41t-76.5 36t-86.5 25.5t-97 9.5q-46 0 -89 -10.5t-76.5 -32t-53.5 -54.5t-20 -79q0 -62 29.5 -110.5t77.5 -89.5t109.5 -77.5t125.5 -74t125.5 -79t109.5 -92.5t77.5 -114.5t29.5 -145.5q0 -98 -41 -175.5t-110 -131.5t-159 -83t-187 -29
q-56 0 -115.5 11t-117.5 32t-111 52t-96 72l93 149q35 -31 77.5 -58t89.5 -46.5t98 -30.5t103 -11q54 0 106 14t92.5 41.5t65.5 68.5t25 95q0 62 -29.5 110.5t-77.5 89.5t-109.5 77.5t-125.5 74t-125.5 78.5t-109.5 92t-77.5 114.5t-29.5 145.5q0 90 36 160t97.5 118.5
t142.5 73.5t171 25q109 0 209 -33t182 -97zM622 1607l-298 207l79 90l229 -128l218 128l68 -84z" />
    <glyph glyph-name="scaron" unicode="&#x161;" horiz-adv-x="942" 
d="M766 912q-32 17 -65 32t-68 26t-72 17t-77 6q-36 0 -68 -7.5t-57 -23t-39.5 -39.5t-14.5 -58q0 -39 23 -70.5t60 -59.5t85 -54t97.5 -53t97.5 -57t85 -67t60 -81.5t23 -101.5q0 -83 -31.5 -147.5t-86 -109.5t-129 -68.5t-159.5 -23.5q-47 0 -94.5 7.5t-93 22t-86 35
t-72.5 47.5l65 141q33 -23 70.5 -41.5t77 -31t79 -19t75.5 -6.5q44 0 82 10t65.5 30.5t43.5 51.5t16 72q0 39 -23 70.5t-60 59.5t-85 54t-97.5 53t-97.5 57t-85 67t-60 81.5t-23 101.5q0 66 26 123t74.5 99t119 66.5t159.5 24.5q42 0 85.5 -6.5t85 -19t80 -30t70.5 -38.5z
M474 1308l-309 295l95 88l223 -190l210 190l95 -86z" />
    <glyph glyph-name="Ydieresis" unicode="&#x178;" horiz-adv-x="1270" 
d="M544 0v641l-500 852h207l396 -684l384 684h197l-501 -852v-641h-183zM322 1730q0 58 22.5 84.5t73.5 26.5q50 0 74 -26.5t24 -84.5t-24 -83.5t-74 -25.5q-51 0 -73.5 25.5t-22.5 83.5zM752 1730q0 58 22.5 84.5t73.5 26.5q48 0 72.5 -26.5t24.5 -84.5t-24.5 -83.5
t-72.5 -25.5q-51 0 -73.5 25.5t-22.5 83.5z" />
    <glyph glyph-name="Zcaron" unicode="&#x17d;" horiz-adv-x="1142" 
d="M571 1607l-298 207l79 90l229 -128l218 128l68 -84zM126 1493h889v-152l-714 -1189h736v-152h-932v152l712 1189h-691v152z" />
    <glyph glyph-name="zcaron" unicode="&#x17e;" horiz-adv-x="961" 
d="M118 1120h744v-145l-567 -830h582v-145h-783v145l566 830h-542v145zM517 1308l-309 295l95 88l223 -190l210 190l95 -86z" />
    <glyph glyph-name="florin" unicode="&#x192;" horiz-adv-x="690" 
d="M371 975v-983q0 -102 -24.5 -180t-74.5 -131t-128 -80t-184 -27h-65v153q82 0 140.5 7t96.5 32.5t56 73.5t18 131v1004h-201v145h201q0 105 13.5 186t50.5 136.5t103.5 84.5t172.5 29q28 0 56.5 -3t51.5 -7q27 -4 52 -10l-36 -137q-33 5 -63 8t-56 4q-43 1 -76.5 -7.5
t-56.5 -30.5t-35 -59.5t-12 -94.5v-99h288v-145h-288z" />
    <glyph glyph-name="circumflex" unicode="&#x2c6;" 
d="M652 1296l-232 185l-219 -185l-101 92l329 296l324 -293z" />
    <glyph glyph-name="caron" unicode="&#x2c7;" 
d="M424 1308l-309 295l95 88l223 -190l210 190l95 -86z" />
    <glyph glyph-name="breve" unicode="&#x2d8;" horiz-adv-x="856" 
d="M263 1622q5 -38 16.5 -68.5t31.5 -51.5t49 -32t69 -11t68 11.5t47.5 32.5t31 51t17.5 68h138q-4 -78 -27 -137t-62 -98t-93 -58.5t-120 -19.5q-65 0 -118.5 19t-93 57.5t-63.5 97.5t-29 139h138z" />
    <glyph glyph-name="dotaccent" unicode="&#x2d9;" horiz-adv-x="856" 
d="M334 1465q0 59 22.5 86.5t71.5 27.5q50 0 73.5 -27t23.5 -87t-24 -86.5t-73 -26.5t-71.5 26.5t-22.5 86.5z" />
    <glyph glyph-name="ring" unicode="&#x2da;" horiz-adv-x="860" 
d="M332 1479q0 -53 29.5 -78.5t71.5 -25.5q41 0 66.5 25t25.5 70q0 18 -6.5 36t-19 32t-30.5 22.5t-41 8.5q-44 0 -70 -25.5t-26 -64.5zM221 1470q0 41 15 79t42.5 67t67 46.5t87.5 17.5q52 0 90 -17.5t63 -46t37 -64.5t12 -73q0 -48 -15 -88t-42.5 -68.5t-65.5 -44
t-83 -15.5t-83.5 15.5t-66 43.5t-43 65.5t-15.5 82.5z" />
    <glyph glyph-name="ogonek" unicode="&#x2db;" horiz-adv-x="856" 
d="M460 0q-18 -6 -37 -26.5t-34 -48.5t-24.5 -58t-9.5 -55q0 -34 16.5 -55t54.5 -21q17 0 38 7t35 16l45 -112q-23 -19 -61 -33.5t-76 -14.5q-52 0 -92.5 12.5t-68.5 36.5t-42.5 59.5t-14.5 82.5q0 32 8 65.5t23.5 65.5t38.5 62t53 54z" />
    <glyph glyph-name="tilde" unicode="&#x2dc;" horiz-adv-x="825" 
d="M549 1343q-37 0 -65.5 10t-51.5 24.5t-41.5 32t-36 32t-35 24.5t-37.5 10q-21 0 -37 -10t-28.5 -25t-23.5 -34t-22 -37l-93 63q14 31 35 63t48.5 57.5t62 42t75.5 16.5q34 0 60.5 -10t48.5 -25t41 -32t37.5 -32t38 -25t42.5 -10q19 0 35 11t29 27.5t23 37t18 39.5l95 -59
q-34 -91 -87 -141t-131 -50z" />
    <glyph glyph-name="hungarumlaut" unicode="&#x2dd;" 
d="M107 1334l168 376l160 -58l-215 -363zM394 1323l211 375l152 -71l-257 -359z" />
    <glyph glyph-name="Delta" unicode="&#x394;" horiz-adv-x="1372" 
d="M1328 0h-1285l539 1493h207zM293 168h786l-394 1126z" />
    <glyph glyph-name="Omega" unicode="&#x3a9;" horiz-adv-x="1496" 
d="M748 1520q103 0 191 -26.5t160 -74t127 -113.5t92.5 -144.5t56.5 -166.5t19 -181q0 -99 -17 -185t-52.5 -163t-90 -148t-128.5 -140h302v-178h-563v178q88 51 155.5 120.5t113.5 152t69 175t23 188.5q0 67 -12 132.5t-37 124.5t-62.5 110t-88.5 88t-115.5 58t-142.5 21
q-79 0 -143.5 -21t-115.5 -58t-89 -87.5t-63 -110t-37 -125t-12 -132.5q0 -96 23.5 -188.5t69 -175t113 -152t156.5 -120.5v-178h-563v178h302q-72 67 -126 137t-90 146.5t-54 161.5t-18 181q0 141 41.5 270.5t123.5 228.5t202.5 158t279.5 59z" />
    <glyph glyph-name="mu" unicode="&#x3bc;" horiz-adv-x="1229" 
d="M151 -426v1546h165v-651q0 -53 6 -98.5t19 -83t33.5 -66.5t49.5 -49t67.5 -30.5t86.5 -10.5q82 0 136.5 29.5t87.5 78.5t46.5 112.5t13.5 131.5v637h167v-862q0 -38 3.5 -62.5t11 -38.5t18.5 -20t26 -6q23 0 37.5 4.5t24.5 11.5l24 -127q-15 -9 -33.5 -18t-38.5 -16
t-40 -11t-39 -4q-38 0 -64.5 12.5t-44.5 34t-28.5 50.5t-16.5 61q-23 -38 -57 -67t-74.5 -49t-86.5 -30.5t-92 -10.5t-83 8t-67 22t-52.5 34t-40.5 43v-505h-165z" />
    <glyph glyph-name="pi" unicode="&#x3c0;" horiz-adv-x="1180" 
d="M84 1120h998v-144h-131v-663q0 -46 3.5 -81t12.5 -59t25.5 -36.5t43.5 -12.5q26 0 43 2t32 4v-133q-16 -6 -32 -11t-32.5 -8t-33.5 -4.5t-34 -1.5q-66 0 -105.5 22.5t-60 63t-26.5 97t-6 124.5v697h-395v-976h-170v976h-132v144z" />
    <glyph glyph-name="endash" unicode="&#x2013;" horiz-adv-x="982" 
d="M102 633h780v-144h-780v144z" />
    <glyph glyph-name="emdash" unicode="&#x2014;" horiz-adv-x="1948" 
d="M102 633h1747v-144h-1747v144z" />
    <glyph glyph-name="quoteleft" unicode="&#x2018;" horiz-adv-x="587" 
d="M277.019 959.093q-50.9961 0 -78.9951 32.998q-27.998 32.998 -27.998 90.9941q0 30.998 7 67.9961q6.99902 36.998 19.498 76.4951q12.5 39.498 29.499 79.4951q16.999 39.998 35.4971 78.4951q18.499 38.498 38.498 72.4961t38.998 60.9961l109.993 -42.9971
q-11 -18.999 -24.999 -46.9971q-13.999 -27.999 -27.498 -59.4971t-24.499 -65.4951q-10.999 -33.998 -15.999 -64.9961q10 -12 19.999 -26.999q10 -14.999 17.999 -32.998q8 -17.999 12.999 -39.9971q5 -21.999 5 -49.9971q0 -39.998 -10.499 -64.9961
q-10.5 -24.999 -28.999 -39.498q-18.498 -14.499 -42.9971 -19.998q-24.498 -5.5 -52.4971 -5.5z" />
    <glyph glyph-name="quoteright" unicode="&#x2019;" horiz-adv-x="587" 
d="M310 1520q51 0 79 -33t28 -91q0 -31 -7 -68t-19.5 -76.5t-29.5 -79.5t-35.5 -78.5t-38.5 -72.5t-39 -61l-110 43q11 19 25 47t27.5 59.5t24.5 65.5t16 65q-10 12 -20 27t-18 33t-13 40t-5 50q0 40 10.5 65t29 39.5t43 20t52.5 5.5z" />
    <glyph glyph-name="quotesinglbase" unicode="&#x201a;" horiz-adv-x="549" 
d="M273 255q51 0 79 -33t28 -91q0 -31 -7 -68t-19.5 -76.5t-29.5 -79.5t-35.5 -78.5t-38.5 -72.5t-39 -61l-110 43q11 19 25 47t27.5 59.5t24.5 65.5t16 65q-10 12 -20 27t-18 33t-13 40t-5 50q0 40 10.5 65t29 39.5t43 20t52.5 5.5z" />
    <glyph glyph-name="quotereversed" unicode="&#x201b;" horiz-adv-x="587" 
d="M277.019 1520q-50.9961 0 -78.9951 -33q-27.998 -33 -27.998 -91q0 -31 7 -68q6.99902 -37 19.498 -76.5q12.5 -39.5 29.499 -79.5t35.4971 -78.5q18.499 -38.5 38.498 -72.5t38.998 -61l109.993 43q-11 19 -24.999 47t-27.498 59.5t-24.499 65.5q-10.999 34 -15.999 65
q10 12 19.999 27q10 15 17.999 33q8 18 12.999 40q5 22 5 50q0 40 -10.499 65q-10.5 25 -28.999 39.5q-18.498 14.5 -42.9971 20q-24.498 5.5 -52.4971 5.5z" />
    <glyph glyph-name="quotedblleft" unicode="&#x201c;" horiz-adv-x="1000" 
d="M690.019 959.093q-50.9961 0 -78.9951 32.998q-27.998 32.998 -27.998 90.9941q0 30.998 7 67.9961q6.99902 36.998 19.498 76.4951q12.5 39.498 29.499 79.4951q16.999 39.998 35.4971 78.4951q18.499 38.498 38.498 72.4961t38.998 60.9961l109.993 -42.9971
q-11 -18.999 -24.999 -46.9971q-13.999 -27.999 -27.498 -59.4971t-24.499 -65.4951q-10.999 -33.998 -15.999 -64.9961q10 -12 19.999 -26.999q10 -14.999 17.999 -32.998q8 -17.999 12.999 -39.9971q5 -21.999 5 -49.9971q0 -39.998 -10.499 -64.9961
q-10.5 -24.999 -28.999 -39.498q-18.498 -14.499 -42.9971 -19.998q-24.498 -5.5 -52.4971 -5.5zM277.044 959.093q-50.9971 0 -78.9951 32.998t-27.998 90.9941q0 30.998 6.99902 67.9961q7 36.998 19.499 76.4951q12.499 39.498 29.498 79.4951
q16.999 39.998 35.498 78.4951q18.499 38.498 38.498 72.4961q19.998 33.998 38.9971 60.9961l109.993 -42.9971q-10.999 -18.999 -24.998 -46.9971q-13.999 -27.999 -27.498 -59.9971t-24.499 -65.4951q-10.999 -33.498 -15.999 -64.4961q10 -12 19.999 -26.999
t17.999 -32.998q7.99902 -17.999 12.999 -39.9971q5 -21.999 5 -49.9971q0 -39.998 -10.5 -64.9961q-10.499 -24.999 -28.998 -39.498t-42.9971 -19.998q-24.499 -5.5 -52.4971 -5.5z" />
    <glyph glyph-name="quotedblright" unicode="&#x201d;" horiz-adv-x="1000" 
d="M310 1520q51 0 79 -33t28 -91q0 -31 -7 -68t-19.5 -76.5t-29.5 -79.5t-35.5 -78.5t-38.5 -72.5t-39 -61l-110 43q11 19 25 47t27.5 59.5t24.5 65.5t16 65q-10 12 -20 27t-18 33t-13 40t-5 50q0 40 10.5 65t29 39.5t43 20t52.5 5.5zM723 1520q51 0 79 -33t28 -91
q0 -31 -7 -68t-19.5 -76.5t-29.5 -79.5t-35.5 -78.5t-38.5 -72.5t-39 -61l-110 43q11 19 25 47t27.5 60t24.5 65.5t16 64.5q-10 12 -20 27t-18 33t-13 40t-5 50q0 40 10.5 65t29 39.5t43 20t52.5 5.5z" />
    <glyph glyph-name="quotedblbase" unicode="&#x201e;" horiz-adv-x="962" 
d="M273 255q51 0 79 -33t28 -91q0 -31 -7 -68t-19.5 -76.5t-29.5 -79.5t-35.5 -78.5t-38.5 -72.5t-39 -61l-110 43q11 19 25 47t27.5 59.5t24.5 65.5t16 65q-10 12 -20 27t-18 33t-13 40t-5 50q0 40 10.5 65t29 39.5t43 20t52.5 5.5zM686 255q51 0 79 -33t28 -91
q0 -31 -7 -68t-19.5 -76.5t-29.5 -79.5t-35.5 -78.5t-38.5 -72.5t-39 -61l-110 43q11 19 25 47t27.5 60t24.5 65.5t16 64.5q-10 12 -20 27t-18 33t-13 40t-5 50q0 40 10.5 65t29 39.5t43 20t52.5 5.5z" />
    <glyph glyph-name="uni201F" unicode="&#x201f;" horiz-adv-x="1000" 
d="M690.019 1520q-50.9961 0 -78.9951 -33q-27.998 -33 -27.998 -91q0 -31 7 -68q6.99902 -37 19.498 -76.5q12.5 -39.5 29.499 -79.5t35.4971 -78.5q18.499 -38.5 38.498 -72.5t38.998 -61l109.993 43q-11 19 -24.999 47t-27.498 59.5t-24.499 65.5q-10.999 34 -15.999 65
q10 12 19.999 27q10 15 17.999 33q8 18 12.999 40q5 22 5 50q0 40 -10.499 65q-10.5 25 -28.999 39.5q-18.498 14.5 -42.9971 20q-24.498 5.5 -52.4971 5.5zM277.044 1520q-50.9971 0 -78.9951 -33t-27.998 -91q0 -31 6.99902 -68q7 -37 19.499 -76.5t29.498 -79.5
t35.498 -78.5t38.498 -72.5q19.998 -34 38.9971 -61l109.993 43q-10.999 19 -24.998 47t-27.498 60t-24.499 65.5q-10.999 33.5 -15.999 64.5q10 12 19.999 27t17.999 33q7.99902 18 12.999 40t5 50q0 40 -10.5 65q-10.499 25 -28.998 39.5t-42.9971 20
q-24.499 5.5 -52.4971 5.5z" />
    <glyph glyph-name="dagger" unicode="&#x2020;" horiz-adv-x="1002" 
d="M421 1493h159v-420h350v-153h-350v-1117h-159v1117h-351v153h351v420z" />
    <glyph glyph-name="daggerdbl" unicode="&#x2021;" horiz-adv-x="1002" 
d="M421 1493h159v-420h350v-153h-350v-543h350v-154h-350v-420h-159v420h-351v154h351v543h-351v153h351v420z" />
    <glyph glyph-name="bullet" unicode="&#x2022;" horiz-adv-x="985" 
d="M243 665q0 61 15 110.5t45.5 84t78 53t113.5 18.5q69 0 116.5 -20t77 -55.5t42.5 -84t13 -106.5q0 -65 -18 -115t-50.5 -83.5t-78.5 -51t-103 -17.5q-124 0 -187.5 68t-63.5 199z" />
    <glyph glyph-name="ellipsis" unicode="&#x2026;" horiz-adv-x="1549" 
d="M181 111q0 67 26.5 98t82.5 31q58 0 86.5 -31t28.5 -98q0 -69 -28.5 -98t-86.5 -29q-57 0 -83 29t-26 98zM662 111q0 67 27 98t83 31q57 0 85.5 -31t28.5 -98q0 -69 -28.5 -98t-85.5 -29t-83.5 29t-26.5 98zM1144 111q0 67 26.5 98t82.5 31q58 0 86.5 -31t28.5 -98
q0 -69 -28.5 -98t-86.5 -29q-57 0 -83 29t-26 98z" />
    <glyph glyph-name="perthousand" unicode="&#x2030;" horiz-adv-x="2731" 
d="M615 1071q0 52 -6 107.5t-24.5 101.5t-52.5 75t-89 29q-47 0 -77.5 -24.5t-47.5 -65t-23.5 -91.5t-6.5 -103q0 -53 6 -108.5t24.5 -101.5t52 -75t89.5 -29q47 0 77 24.5t47.5 65t24 91.5t6.5 104zM791 1100q0 -93 -18 -174.5t-59 -142.5t-107.5 -96t-163.5 -35
q-89 0 -152 33.5t-103 91t-58 133.5t-18 161q0 93 18 174t59 142t107.5 96t163.5 35q89 0 152 -33.5t102.5 -90.5t58 -133t18.5 -161zM1424 1543l136 -82l-1089 -1534l-136 82zM1629 391q0 52 -6 107.5t-24.5 101.5t-52.5 75t-89 29q-47 0 -77.5 -24.5t-47.5 -65
t-23.5 -91.5t-6.5 -103q0 -53 6 -108.5t24.5 -101.5t52 -75t89.5 -29q47 0 77 24.5t47.5 65t24 91.5t6.5 104zM1805 420q0 -93 -18 -174.5t-59 -142.5t-107.5 -96t-163.5 -35q-89 0 -152 33.5t-103 91t-58 133.5t-18 161q0 93 18 174t59 142t107.5 96t163.5 35
q89 0 152 -33.5t102.5 -90.5t58 -133t18.5 -161zM2443 391q0 52 -6 107.5t-24.5 101.5t-52.5 75t-89 29q-47 0 -77.5 -24.5t-47.5 -65t-23.5 -91.5t-6.5 -103q0 -53 6 -108.5t24.5 -101.5t52 -75t89.5 -29q47 0 77 24.5t47.5 65t24 91.5t6.5 104zM2619 420q0 -93 -18 -174.5
t-59 -142.5t-107.5 -96t-163.5 -35q-89 0 -152 33.5t-103 91t-58 133.5t-18 161q0 93 18 174t59 142t107.5 96t163.5 35q89 0 152 -33.5t102.5 -90.5t58 -133t18.5 -161z" />
    <glyph glyph-name="guilsinglleft" unicode="&#x2039;" horiz-adv-x="742" 
d="M593 1059l99 -93l-360 -365l340 -358l-97 -95l-491 435z" />
    <glyph glyph-name="guilsinglright" unicode="&#x203a;" horiz-adv-x="742" 
d="M149.036 148.064l-98.9941 92.9941l359.979 364.979l-339.979 357.978l96.9941 94.9941l490.97 -434.974z" />
    <glyph glyph-name="fraction" unicode="&#x2044;" horiz-adv-x="130" 
d="M526 1543l137 -82l-1089 -1534l-137 82z" />
    <glyph glyph-name="Euro" unicode="&#x20ac;" horiz-adv-x="1500" 
d="M1285 1179q-45 45 -90 76.5t-93.5 51t-101.5 28.5t-113 9q-92 0 -162.5 -33.5t-121.5 -83t-82.5 -105t-44.5 -99.5h646v-152h-681q-4 -26 -5.5 -55t-1.5 -55t1.5 -60.5t6.5 -60.5h680v-152h-650q11 -37 30 -76.5t46 -77.5t62.5 -72t80 -59.5t98.5 -40.5t118 -15
q49 0 97 9.5t96 29.5t96.5 52.5t98.5 78.5l102 -115q-62 -60 -122 -103.5t-121.5 -72t-127.5 -42t-139 -13.5q-91 0 -168 20.5t-140.5 57t-113.5 85.5t-88 106.5t-64 120.5t-40 127h-234v152h212q0 7 -1 19l-2 24l-1 25v22q0 38 2.5 72t5.5 69h-216v152h245q14 56 39 115
t62.5 114t88 104t115 85.5t144 57.5t174.5 21q141 0 262 -50t226 -156z" />
    <glyph glyph-name="trademark" unicode="&#x2122;" horiz-adv-x="1654" 
d="M32 1493h639v-113h-248v-634h-142v634h-249v113zM765 1493h200l115 -285q15 -43 29 -89t25.5 -89.5t19.5 -81.5t11 -64h6q6 32 15.5 70t21.5 80t26 86.5t28 89.5l118 283h185v-747h-141v250q0 114 8 193t15 135l-7 4q-16 -56 -37.5 -119t-43.5 -125l-127 -338h-143
l-121 337q-12 33 -23 66.5t-21 65t-19 60.5t-16 53l-7 -2q5 -57 9.5 -138.5t4.5 -193.5v-248h-131v747z" />
    <glyph glyph-name="uni2126" unicode="&#x2126;" horiz-adv-x="1496" 
d="M748 1520q103 0 191 -26.5t160 -74t127 -113.5t92.5 -144.5t56.5 -166.5t19 -181q0 -99 -17 -185t-52.5 -163t-90 -148t-128.5 -140h302v-178h-563v178q88 51 155.5 120.5t113.5 152t69 175t23 188.5q0 67 -12 132.5t-37 124.5t-62.5 110t-88.5 88t-115.5 58t-142.5 21
q-79 0 -143.5 -21t-115.5 -58t-89 -87.5t-63 -110t-37 -125t-12 -132.5q0 -96 23.5 -188.5t69 -175t113 -152t156.5 -120.5v-178h-563v178h302q-72 67 -126 137t-90 146.5t-54 161.5t-18 181q0 141 41.5 270.5t123.5 228.5t202.5 158t279.5 59z" />
    <glyph glyph-name="partialdiff" unicode="&#x2202;" horiz-adv-x="1154" 
d="M283 1396q62 28 133.5 39t136.5 11q91 0 162.5 -36t126 -96.5t93 -140t63 -166.5t35.5 -176.5t11 -169.5q0 -88 -8 -173t-28.5 -161.5t-55.5 -141.5t-89 -112.5t-130 -74t-177 -26.5q-102 0 -184.5 37.5t-140.5 103t-89 154.5t-31 193q0 126 35.5 222t100 161t154.5 98
t198 33q46 0 84.5 -8t70.5 -24.5t60 -41.5t53 -58q-14 82 -40 163.5t-67 146.5t-97.5 105.5t-129.5 40.5q-24 0 -51 -1.5t-54 -5.5t-52.5 -10.5t-46.5 -15.5zM577 825q-60 0 -113 -20t-92.5 -61.5t-62 -104.5t-22.5 -149q0 -80 17.5 -147t53.5 -116.5t90.5 -77t128.5 -27.5
q61 0 114 25t92 70t61.5 107t22.5 136q0 82 -18 149t-54 115t-90.5 74.5t-127.5 26.5z" />
    <glyph glyph-name="uni2206" unicode="&#x2206;" horiz-adv-x="1356" 
d="M1328 0h-1285l539 1493h207zM293 168h786l-394 1126z" />
    <glyph glyph-name="product" unicode="&#x220f;" horiz-adv-x="1500" 
d="M200 1493h1100v-1919h-176v1764h-749v-1764h-175v1919z" />
    <glyph glyph-name="summation" unicode="&#x2211;" horiz-adv-x="1277" 
d="M146 1493h1028v-151h-791l551 -779l-569 -837h832v-152h-1077v109l599 874l-573 801v135z" />
    <glyph glyph-name="minus" unicode="&#x2212;" horiz-adv-x="1570" 
d="M1305 719v-154h-1040v154h1040z" />
    <glyph glyph-name="radical" unicode="&#x221a;" horiz-adv-x="1281" 
d="M1053 1661h202v-96h-106l-561 -1606h-72l-302 883l-117 -45l-23 80l247 92l242 -709z" />
    <glyph glyph-name="infinity" unicode="&#x221e;" horiz-adv-x="1621" 
d="M1515 729q0 -75 -19.5 -142.5t-57 -118.5t-93 -80.5t-128.5 -29.5q-52 0 -103.5 22.5t-102.5 59t-101.5 83.5t-100.5 96q-51 -49 -104 -96t-105.5 -83.5t-103.5 -59t-99 -22.5q-73 0 -127.5 29t-91 78.5t-54.5 116t-18 141.5t19.5 142.5t57 118t93 80.5t127.5 30
q47 0 97 -22t102 -58t104.5 -83t105.5 -98q52 50 105 97t105.5 83.5t103.5 58.5t99 22q72 0 126.5 -29t91 -78.5t54.5 -116t18 -141.5zM1362 723q0 54 -11 94.5t-30.5 67.5t-47.5 40.5t-62 13.5q-31 0 -64.5 -17t-70.5 -46t-77.5 -67t-85.5 -81q45 -43 86 -81.5t78.5 -67
t72.5 -45t68 -16.5q34 0 60.5 15t45 42t28.5 65t10 83zM259 728q0 -101 38.5 -155.5t109.5 -54.5q30 0 64 16t71.5 44t79 66t86.5 81q-43 42 -85 80.5t-81 68.5t-74.5 47.5t-65.5 17.5q-33 0 -59.5 -16t-45 -44t-28.5 -67t-10 -84z" />
    <glyph glyph-name="integral" unicode="&#x222b;" horiz-adv-x="1004" 
d="M684 1400q-26 0 -40.5 -21.5t-22 -50.5t-9.5 -58t-3 -45l-59 -1360q-2 -48 -15 -100.5t-40 -97t-70 -73.5t-104 -29q-51 0 -88 26t-61.5 65.5t-38 86t-18.5 87.5l136 15q1 -13 5 -35t11.5 -43t20.5 -36.5t34 -15.5q25 0 39.5 21.5t22 50.5t9.5 58t3 45l61 1360
q2 48 15 101t40 97t69.5 73t104.5 29q51 0 87.5 -26t61 -66t38 -86.5t18.5 -86.5l-136 -15q-2 13 -5.5 35t-11 43t-20.5 36.5t-34 15.5z" />
    <glyph glyph-name="approxequal" unicode="&#x2248;" horiz-adv-x="1372" 
d="M1257 835q-33 -34 -73.5 -63.5t-84.5 -51t-90.5 -34t-92.5 -12.5q-40 0 -78 10t-74.5 24.5t-71.5 31.5t-70 31.5t-70 24.5t-72 10q-39 0 -75.5 -12t-71 -32t-65.5 -46t-58 -55l-73 119q29 31 70 65t88.5 62t100 46t103.5 18q41 0 79 -10t74 -24.5t71 -32t69.5 -32
t69.5 -24.5t72 -10q35 0 68 8t64 23t59 36.5t54 48.5zM1257 438q-33 -34 -73.5 -63.5t-84.5 -51t-90.5 -34t-92.5 -12.5q-40 0 -78 10t-74.5 24.5t-71.5 31.5t-70 31.5t-70 24.5t-72 10q-39 0 -75.5 -12t-71 -32t-65.5 -46t-58 -55l-73 119q30 31 71 65t88.5 62t99.5 46
t103 18q61 0 116.5 -20.5t108 -45.5t104 -45.5t106.5 -20.5q35 0 68 8t64 22.5t59 36t54 48.5z" />
    <glyph glyph-name="notequal" unicode="&#x2260;" horiz-adv-x="1572" 
d="M1306 919v-154h-338l-192 -264h530v-154h-642l-224 -308l-126 93l157 215h-205v154h318l193 264h-511v154h624l239 326l126 -86l-175 -240h226z" />
    <glyph glyph-name="lessequal" unicode="&#x2264;" horiz-adv-x="1573" 
d="M1393 153v-153h-1212v153h1212zM1328 1118l-915 -367l914 -365l-77 -158l-1069 435v167l1072 438z" />
    <glyph glyph-name="greaterequal" unicode="&#x2265;" horiz-adv-x="1573" 
d="M1393 153v-153h-1212v153h1212zM246 378l914 367l-913 365l77 158l1069 -435v-167l-1072 -438z" />
    <glyph glyph-name="lozenge" unicode="&#x25ca;" horiz-adv-x="1019" 
d="M510 1263l-353 -671l352 -689l367 688zM509 1553l524 -961l-524 -969l-512 969z" />
    <glyph glyph-name="uniFB00" unicode="&#xfb00;" horiz-adv-x="1364" 
d="M599 1571q32 0 68 -6t72 -19l-26 -129q-29 5 -63.5 8.5t-75.5 3.5q-43 0 -75 -11t-53 -34t-31.5 -60.5t-10.5 -89.5v-114h483v84q0 99 22 168.5t66.5 114t112.5 64.5t160 20q32 0 68 -6t71 -19l-26 -129q-29 5 -63.5 8.5t-74.5 3.5q-43 0 -75 -11t-53.5 -34t-32 -60.5
t-10.5 -89.5v-114h288v-145h-288v-975h-165v975h-483v-975h-166v975h-199v145h199v84q0 99 22 168.5t67 114t112.5 64.5t159.5 20z" />
    <glyph glyph-name="uniFB03" unicode="&#xfb03;" horiz-adv-x="1864" 
d="M1534 975h-482v-975h-165v975h-483v-975h-166v975h-199v145h199v84q0 99 22 168.5t67 114t112.5 64.5t159.5 20q32 0 68 -6t72 -19l-26 -129q-29 5 -63.5 8.5t-75.5 3.5q-43 0 -75 -11t-53 -34t-31.5 -60.5t-10.5 -89.5v-114h483v84q0 99 22 168.5t66.5 114t112.5 64.5
t160 20q32 0 68 -6t71 -19l-26 -129q-29 5 -63.5 8.5t-74.5 3.5q-43 0 -75 -11t-53.5 -34t-32 -60.5t-10.5 -89.5v-114h648v-1120h-166v975zM1521 1439q0 59 22.5 86.5t71.5 27.5q50 0 73.5 -27t23.5 -87t-24 -86.5t-73 -26.5t-71.5 26.5t-22.5 86.5z" />
    <glyph glyph-name="uniFB04" unicode="&#xfb04;" horiz-adv-x="1866" 
d="M599 1571q32 0 68 -6t72 -19l-26 -129q-29 5 -63.5 8.5t-75.5 3.5q-43 0 -75 -11t-53 -34t-31.5 -60.5t-10.5 -89.5v-114h483v84q0 95 24 164.5t71.5 114.5t119 66.5t166.5 21.5q45 0 100 -6.5t112.5 -19t114.5 -30t106 -38.5v-1477h-165v1377q-29 12 -63 21.5t-71.5 16
t-77.5 10.5t-81 4q-50 0 -86 -11.5t-59 -35.5t-34 -61t-11 -87v-114h288v-145h-288v-975h-166v975h-483v-975h-166v975h-199v145h199v84q0 99 22 168.5t67 114t112.5 64.5t159.5 20z" />
    <glyph glyph-name="uniFB05" unicode="&#xfb05;" horiz-adv-x="1439" 
d="M1378 15q-14 -7 -35.5 -14.5t-46.5 -14t-51 -10.5t-49 -4q-81 0 -139 19.5t-96 61t-56 106t-18 155.5v661h-483v-975h-166v975h-199v145h199v84q0 88 17.5 156t56 115t100 71.5t149.5 24.5q22 0 46.5 -2t48 -6t45 -9.5t36.5 -12.5l-23 -130q-16 4 -33 7t-36 5.5t-38.5 4
t-39.5 1.5q-50 0 -82 -11.5t-50 -35.5t-24.5 -60.5t-6.5 -87.5v-114h483l20 318h145v-318h338v-145h-338v-622q0 -52 8.5 -94t28 -71t51 -45t77.5 -16q13 0 31 1.5t36.5 4.5t36.5 7t32 9z" />
    <glyph glyph-name="grave.cap" 
d="M603 1611l-428 170l112 128l392 -209z" />
    <glyph glyph-name="acute.cap" horiz-adv-x="856" 
d="M253 1608l-80 92l392 209l116 -131z" />
    <glyph glyph-name="circumflex.cap" 
d="M428 1904l298 -207l-80 -90l-228 128l-218 -128l-68 84z" />
    <glyph glyph-name="tilde.cap" 
d="M549 1644q-56 0 -93 14.5t-65.5 32t-53 32t-55.5 14.5q-21 0 -37 -8.5t-28.5 -22t-23.5 -30.5t-22 -35l-93 63q14 31 35 61.5t48.5 54.5t62 38.5t75.5 14.5q51 0 86 -14.5t64 -32.5t56 -32.5t62 -14.5q19 0 35 7.5t29 20.5t23 30.5t18 36.5l95 -59q-34 -90 -87.5 -130.5
t-130.5 -40.5z" />
    <glyph glyph-name="breve.cap" horiz-adv-x="883" 
d="M263 1909q4 -30 20 -52.5t39 -37t50.5 -22t56.5 -7.5q31 0 58.5 5.5t49 19t36 36.5t20.5 58h138q-4 -74 -29.5 -125.5t-67 -83.5t-94.5 -46t-111 -14q-57 0 -110 14t-94.5 45.5t-68 83t-31.5 126.5h138z" />
    <glyph glyph-name="dieresis.cap" horiz-adv-x="926" 
d="M117 1730q0 58 22.5 84.5t73.5 26.5q50 0 74 -26.5t24 -84.5t-24 -83.5t-74 -25.5q-51 0 -73.5 25.5t-22.5 83.5zM547 1730q0 58 22.5 84.5t73.5 26.5q48 0 72.5 -26.5t24.5 -84.5t-24.5 -83.5t-72.5 -25.5q-51 0 -73.5 25.5t-22.5 83.5z" />
    <glyph glyph-name="hungarumlaut.cap" horiz-adv-x="902" 
d="M126 1639l179 321l160 -63l-216 -303zM413 1628l222 320l152 -76l-258 -299z" />
    <glyph glyph-name="caron.cap" horiz-adv-x="885" 
d="M430 1607l-298 207l79 90l229 -128l218 128l68 -84z" />
    <glyph glyph-name="cedilla.alt" 
d="M236 -417q26 15 47.5 28.5t37 27.5t24 28t8.5 29q0 26 -29 54.5t-77 44.5q25 34 48.5 69t43.5 68t36 63.5t25 55.5l101 -35q-6 -17 -15.5 -38.5t-21.5 -42.5t-24.5 -41t-23.5 -34q22 -12 40.5 -24.5t32 -28.5t21.5 -36.5t8 -46.5q0 -37 -16.5 -67.5t-46 -56.5
t-70.5 -48.5t-90 -43.5z" />
    <glyph glyph-name="sfthyphen" horiz-adv-x="706" 
d="M102 643h505v-164h-505v164z" />
    <glyph glyph-name="periodcentered" horiz-adv-x="515" 
d="M156 710q0 63 24 91.5t76 28.5t77 -28.5t25 -91.5t-25 -91t-77 -28t-76 28t-24 91z" />
    <glyph glyph-name="apple" horiz-adv-x="2890" 
d="M1782 -279l-235 -166l-1047 740v631l234 165l375 -262v528l235 166l237 -166v-528l170 118l200 -141l204 143l235 -166v-631l-235 -165l-204 144l-169 -121v-289zM564 926l170 -120l171 120l-171 122zM767 783l169 -122l173 122l-169 120zM968 639l172 -122l172 122
l-172 120zM1344 1478l-173 -121l173 -122l172 122zM1344 1189l-173 -121l173 -121l169 124zM1344 903l-173 -120l173 -122l169 122zM1171 493l173 -117l169 120l-169 119zM1375 353l172 -121l169 121l-169 121zM1751 903l-173 -120l170 -122l172 122zM2155 903l-170 -120
l170 -122l172 122z" />
    <glyph glyph-name="signature" horiz-adv-x="2890" 
d="M1697 76v342h351v-225h-189v40h63v144h-95v-265h225v-36h-355zM1418 71v-72h-131v419h351v-347h-220zM887 -1v36h211v77h-220v306h126v-266h94v266h131v-419h-342zM756 377v-265h77v-36h-203v301h-49v41h49v117h126v-117h90v-41h-90zM1418 377v-265h94v265h-94zM2316 581
v342h351v-225h-193v41h63v144h-95v-266h225v-36h-351zM2123 577v427h-41v36h171v-463h-130zM1718 581v342h346v-342h-346zM1596 883v-266h72v-36h-202v302h-50v40h50v117h130v-117h86v-40h-86zM1259 581v180h-95v-144h50v-36h-176v221h221v81h-185v40h315v-306h32v-36h-162z
M849 581v302h-94v-302h-131v342h351v-342h-126zM431 581v180h-95v-144h50v-36h-176v221h221v81h-185v40h315v-306h36v-36h-166zM1844 883v-266h94v266h-94z" />
    </font>
</defs>
</svg>
